<svg height="6830" width="720" xmlns="http://www.w3.org/2000/svg">
<rect height="6830" fill="#555" width="720"></rect>
<text fill="#7f7" font-family="Courier New" font-size="12" xml:space="preserve">
<tspan x="10" y="26"></tspan>

<tspan x="10" y="42">[MODE_BUILD=npmTestPublished] - 2019-08-03T11:33:14.972Z - npm-testing /tmp/npmTestPublished/nod\</tspan>
<tspan x="10" y="58">e_modules/electron-lite</tspan>

<tspan x="10" y="74"></tspan>

<tspan x="10" y="90"></tspan>

<tspan x="10" y="106">covering $ /tmp/npmTestPublished/node_modules/electron-lite/external/electron /tmp/npmTestPublis\</tspan>
<tspan x="10" y="122">hed/node_modules/electron-lite/test.js</tspan>

<tspan x="10" y="138">&gt; http-server listening on port 47599</tspan>

<tspan x="10" y="154">db - dropping database ...</tspan>

<tspan x="10" y="170">Xlib:  extension "RANDR" missing on display ":99.0".</tspan>

<tspan x="10" y="186">jslint /tmp/npmTestPublished/node_modules/electron-lite/README.md.&lt;```javascript&gt;.js</tspan>

<tspan x="10" y="202">  1 Unexpected trailing space. // line 122, column 30</tspan>

<tspan x="10" y="218">    frame: false,</tspan>

<tspan x="10" y="234">{</tspan>

<tspan x="10" y="250">    "name": "JSLintError",</tspan>

<tspan x="10" y="266">    "column": 30,</tspan>

<tspan x="10" y="282">    "line": 122,</tspan>

<tspan x="10" y="298">    "code": "unexpected_trailing_space",</tspan>

<tspan x="10" y="314">    "message": "Unexpected trailing space.",</tspan>

<tspan x="10" y="330">    "source": "                frame: false, ",</tspan>

<tspan x="10" y="346">    "ignore": null,</tspan>

<tspan x="10" y="362">    "c": {},</tspan>

<tspan x="10" y="378">    "d": {},</tspan>

<tspan x="10" y="394">    "a": "frame: false,",</tspan>

<tspan x="10" y="410">    "option": {</tspan>

<tspan x="10" y="426">        "modeNext": 12,</tspan>

<tspan x="10" y="442">        "autofix": true,</tspan>

<tspan x="10" y="458">        "conditional": true,</tspan>

<tspan x="10" y="474">        "file": "/tmp/npmTestPublished/node_modules/electron-lite/README.md.&lt;```javascript&gt;.js",</tspan>

<tspan x="10" y="490">        "errorText": "",</tspan>

<tspan x="10" y="506">        "fileType": ".js",</tspan>

<tspan x="10" y="522">        "utility2": true,</tspan>

<tspan x="10" y="538">        "fileType0": ".md",</tspan>

<tspan x="10" y="554">        "lineOffset": 79,</tspan>

<tspan x="10" y="570">        "edition": "2019-01-31",</tspan>

<tspan x="10" y="586">        "id": "(JSLint)",</tspan>

<tspan x="10" y="602">        "json": false,</tspan>

<tspan x="10" y="618">        "module": false,</tspan>

<tspan x="10" y="634">        "ok": false,</tspan>

<tspan x="10" y="650">        "stop": false,</tspan>

<tspan x="10" y="666">        "bitwise": true,</tspan>

<tspan x="10" y="682">        "browser": true,</tspan>

<tspan x="10" y="698">        "node": true,</tspan>

<tspan x="10" y="714">        "this": true</tspan>

<tspan x="10" y="730">    },</tspan>

<tspan x="10" y="746">    "stack": null,</tspan>

<tspan x="10" y="762">    "evidence": "                frame: false, "</tspan>

<tspan x="10" y="778">}</tspan>

<tspan x="10" y="794">Error</tspan>

<tspan x="10" y="810">    at warn_at_extra (/tmp/npmTestPublished/node_modules/electron-lite/node_modules/utility2/lib\</tspan>
<tspan x="10" y="826">.jslint.js:7154:42)</tspan>

<tspan x="10" y="842">    at warn_at (/tmp/npmTestPublished/node_modules/electron-lite/node_modules/utility2/lib.jslin\</tspan>
<tspan x="10" y="858">t.js:2462:5)</tspan>

<tspan x="10" y="874">    at next_line (/tmp/npmTestPublished/node_modules/electron-lite/node_modules/utility2/lib.jsl\</tspan>
<tspan x="10" y="890">int.js:2602:17)</tspan>

<tspan x="10" y="906">    at lex (/tmp/npmTestPublished/node_modules/electron-lite/node_modules/utility2/lib.jslint.js\</tspan>
<tspan x="10" y="922">:3215:27)</tspan>

<tspan x="10" y="938">    at tokenize (/tmp/npmTestPublished/node_modules/electron-lite/node_modules/utility2/lib.jsli\</tspan>
<tspan x="10" y="954">nt.js:3475:13)</tspan>

<tspan x="10" y="970">    at /tmp/npmTestPublished/node_modules/electron-lite/node_modules/utility2/lib.jslint.js:6847\</tspan>
<tspan x="10" y="986">:9</tspan>

<tspan x="10" y="1002">    at Object.jslint_extra (/tmp/npmTestPublished/node_modules/electron-lite/node_modules/utilit\</tspan>
<tspan x="10" y="1018">y2/lib.jslint.js:6949:21)</tspan>

<tspan x="10" y="1034">    at Object.local.jslintAndPrint (/tmp/npmTestPublished/node_modules/electron-lite/node_module\</tspan>
<tspan x="10" y="1050">s/utility2/lib.jslint.js:7299:41)</tspan>

<tspan x="10" y="1066">    at Object.local.jslintAndPrint (/tmp/npmTestPublished/node_modules/electron-lite/node_module\</tspan>
<tspan x="10" y="1082">s/utility2/lib.jslint.js:7410:18)</tspan>

<tspan x="10" y="1098">    at Object.local.jslintAndPrint (/tmp/npmTestPublished/node_modules/electron-lite/node_module\</tspan>
<tspan x="10" y="1114">s/utility2/lib.jslint.js:7410:18)</tspan>

<tspan x="10" y="1130">  2 Unexpected trailing space. // line 123, column 29</tspan>

<tspan x="10" y="1146">    height: 768,</tspan>

<tspan x="10" y="1162">  3 Unexpected trailing space. // line 124, column 29</tspan>

<tspan x="10" y="1178">    width: 1024,</tspan>

<tspan x="10" y="1194">  4 Unexpected trailing space. // line 125, column 22</tspan>

<tspan x="10" y="1210">    x: 0,</tspan>

<tspan x="10" y="1226">--- /tmp/npmTestPublished/node_modules/electron-lite/README.md.autofix.old	2019-08-03 11:33:15.9\</tspan>
<tspan x="10" y="1242">63511358 +0000</tspan>

<tspan x="10" y="1258">+++ /tmp/npmTestPublished/node_modules/electron-lite/README.md	2019-08-03 11:33:15.963511358 +00\</tspan>
<tspan x="10" y="1274">00</tspan>

<tspan x="10" y="1290">@@ -118,7 +118,13 @@</tspan>

<tspan x="10" y="1306">             break;</tspan>

<tspan x="10" y="1322">         case 2:</tspan>

<tspan x="10" y="1338">             // init options</tspan>

<tspan x="10" y="1354">-            options = {frame: false, height: 768, width: 1024, x: 0, y: 0};</tspan>

<tspan x="10" y="1370">+            options = {</tspan>

<tspan x="10" y="1386">+                frame: false, </tspan>

<tspan x="10" y="1402">+                height: 768, </tspan>

<tspan x="10" y="1418">+                width: 1024, </tspan>

<tspan x="10" y="1434">+                x: 0, </tspan>

<tspan x="10" y="1450">+                y: 0</tspan>

<tspan x="10" y="1466">+            };</tspan>

<tspan x="10" y="1482">             // init browserWindow;</tspan>

<tspan x="10" y="1498">             try {</tspan>

<tspan x="10" y="1514">                 options.BrowserWindow = require("browser-window");</tspan>

<tspan x="10" y="1530">@@ -183,12 +189,6 @@</tspan>

<tspan x="10" y="1546"> </tspan>

<tspan x="10" y="1562"> </tspan>

<tspan x="10" y="1578"> </tspan>

<tspan x="10" y="1594">-</tspan>

<tspan x="10" y="1610">-</tspan>

<tspan x="10" y="1626">-</tspan>

<tspan x="10" y="1642">-</tspan>

<tspan x="10" y="1658">-</tspan>

<tspan x="10" y="1674">-</tspan>

<tspan x="10" y="1690"> # package.json</tspan>

<tspan x="10" y="1706"> ```json</tspan>

<tspan x="10" y="1722"> {</tspan>

<tspan x="10" y="1738">jslint-autofix - modified and saved file /tmp/npmTestPublished/node_modules/electron-lite/README\</tspan>
<tspan x="10" y="1754">.md</tspan>

<tspan x="10" y="1770">jslint - 81ms /tmp/npmTestPublished/node_modules/electron-lite/README.md</tspan>

<tspan x="10" y="1786">--- /tmp/npmTestPublished/node_modules/electron-lite/lib.electron.js.autofix.old	2019-08-03 11:3\</tspan>
<tspan x="10" y="1802">3:16.055469019 +0000</tspan>

<tspan x="10" y="1818">+++ /tmp/npmTestPublished/node_modules/electron-lite/lib.electron.js	2019-08-03 11:33:16.0554690\</tspan>
<tspan x="10" y="1834">19 +0000</tspan>

<tspan x="10" y="1850">@@ -56,30 +56,30 @@</tspan>

<tspan x="10" y="1866">     // init function</tspan>

<tspan x="10" y="1882">     local.assertThrow = function (passed, message) {</tspan>

<tspan x="10" y="1898">     /*</tspan>

<tspan x="10" y="1914">-     * this function will throw the error &lt;message&gt; if &lt;passed&gt; is falsy</tspan>

<tspan x="10" y="1930">+     * this function will throw error-&lt;message&gt; if &lt;passed&gt; is falsy</tspan>

<tspan x="10" y="1946">      */</tspan>

<tspan x="10" y="1962">-        var error;</tspan>

<tspan x="10" y="1978">+        var err;</tspan>

<tspan x="10" y="1994">         if (passed) {</tspan>

<tspan x="10" y="2010">             return;</tspan>

<tspan x="10" y="2026">         }</tspan>

<tspan x="10" y="2042">-        error = (</tspan>

<tspan x="10" y="2058">+        err = (</tspan>

<tspan x="10" y="2074">             // ternary-condition</tspan>

<tspan x="10" y="2090">             (</tspan>

<tspan x="10" y="2106">                 message</tspan>

<tspan x="10" y="2122">                 &amp;&amp; typeof message.message === "string"</tspan>

<tspan x="10" y="2138">                 &amp;&amp; typeof message.stack === "string"</tspan>

<tspan x="10" y="2154">             )</tspan>

<tspan x="10" y="2170">-            // if message is an error-object, then leave it as is</tspan>

<tspan x="10" y="2186">+            // if message is error-object, then leave as is</tspan>

<tspan x="10" y="2202">             ? message</tspan>

<tspan x="10" y="2218">             : new Error(</tspan>

<tspan x="10" y="2234">                 typeof message === "string"</tspan>

<tspan x="10" y="2250">-                // if message is a string, then leave it as is</tspan>

<tspan x="10" y="2266">+                // if message is a string, then leave as is</tspan>

<tspan x="10" y="2282">                 ? message</tspan>

<tspan x="10" y="2298">                 // else JSON.stringify message</tspan>

<tspan x="10" y="2314">                 : JSON.stringify(message, null, 4)</tspan>

<tspan x="10" y="2330">             )</tspan>

<tspan x="10" y="2346">         );</tspan>

<tspan x="10" y="2362">-        throw error;</tspan>

<tspan x="10" y="2378">+        throw err;</tspan>

<tspan x="10" y="2394">     };</tspan>

<tspan x="10" y="2410">     local.functionOrNop = function (fnc) {</tspan>

<tspan x="10" y="2426">     /*</tspan>

<tspan x="10" y="2442">@@ -107,7 +107,8 @@</tspan>

<tspan x="10" y="2458">      * null, undefined, or empty-string,</tspan>

<tspan x="10" y="2474">      * then overwrite them with items from &lt;source&gt;</tspan>

<tspan x="10" y="2490">      */</tspan>

<tspan x="10" y="2506">-        Object.keys(source).forEach(function (key) {</tspan>

<tspan x="10" y="2522">+        target = target || {};</tspan>

<tspan x="10" y="2538">+        Object.keys(source || {}).forEach(function (key) {</tspan>

<tspan x="10" y="2554">             if (</tspan>

<tspan x="10" y="2570">                 target[key] === null</tspan>

<tspan x="10" y="2586">                 || target[key] === undefined</tspan>

<tspan x="10" y="2602">@@ -116,6 +117,7 @@</tspan>

<tspan x="10" y="2618">                 target[key] = target[key] || source[key];</tspan>

<tspan x="10" y="2634">             }</tspan>

<tspan x="10" y="2650">         });</tspan>

<tspan x="10" y="2666">+        return target;</tspan>

<tspan x="10" y="2682">     };</tspan>

<tspan x="10" y="2698">     // require builtin</tspan>

<tspan x="10" y="2714">     if (!local.isBrowser) {</tspan>

<tspan x="10" y="2730">@@ -191,16 +193,13 @@</tspan>

<tspan x="10" y="2746"> if (local.isBrowser || module !== require.main || process.versions.electron) {</tspan>

<tspan x="10" y="2762">     return;</tspan>

<tspan x="10" y="2778"> }</tspan>

<tspan x="10" y="2794">-([</tspan>

<tspan x="10" y="2810">-    (</tspan>

<tspan x="10" y="2826">-        process.platform === "darwin"</tspan>

<tspan x="10" y="2842">-        &amp;&amp; __dirname + "/external/Atom.app/Contents/MacOS/Atom"</tspan>

<tspan x="10" y="2858">-    ), (</tspan>

<tspan x="10" y="2874">-        process.platform === "darwin"</tspan>

<tspan x="10" y="2890">-        &amp;&amp; __dirname + "/external/Electron.app/Contents/MacOS/Electron"</tspan>

<tspan x="10" y="2906">-    ),</tspan>

<tspan x="10" y="2922">-    __dirname + "/external/electron"</tspan>

<tspan x="10" y="2938">-]).some(function (file) {</tspan>

<tspan x="10" y="2954">+([(</tspan>

<tspan x="10" y="2970">+    process.platform === "darwin"</tspan>

<tspan x="10" y="2986">+    &amp;&amp; __dirname + "/external/Atom.app/Contents/MacOS/Atom"</tspan>

<tspan x="10" y="3002">+), (</tspan>

<tspan x="10" y="3018">+    process.platform === "darwin"</tspan>

<tspan x="10" y="3034">+    &amp;&amp; __dirname + "/external/Electron.app/Contents/MacOS/Electron"</tspan>

<tspan x="10" y="3050">+), __dirname + "/external/electron"]).some(function (file) {</tspan>

<tspan x="10" y="3066">     if (file &amp;&amp; local.fs.existsSync(file)) {</tspan>

<tspan x="10" y="3082">         local.__filename = file;</tspan>

<tspan x="10" y="3098">         return true;</tspan>

<tspan x="10" y="3114">@@ -210,7 +209,9 @@</tspan>

<tspan x="10" y="3130"> local.child = local.child_process.spawn(</tspan>

<tspan x="10" y="3146">     local.__filename,</tspan>

<tspan x="10" y="3162">     process.argv.slice(2),</tspan>

<tspan x="10" y="3178">-    {stdio: [0, "pipe", 2]}</tspan>

<tspan x="10" y="3194">+    {</tspan>

<tspan x="10" y="3210">+        stdio: [0, "pipe", 2]</tspan>

<tspan x="10" y="3226">+    }</tspan>

<tspan x="10" y="3242"> );</tspan>

<tspan x="10" y="3258"> local.child.on("exit", process.exit);</tspan>

<tspan x="10" y="3274"> local.child.stdout.on("data", function (chunk, encoding, cb) {</tspan>

<tspan x="10" y="3290">jslint-autofix - modified and saved file /tmp/npmTestPublished/node_modules/electron-lite/lib.el\</tspan>
<tspan x="10" y="3306">ectron.js</tspan>

<tspan x="10" y="3322">jslint - 73ms /tmp/npmTestPublished/node_modules/electron-lite/lib.electron.js</tspan>

<tspan x="10" y="3338">jslint - 14ms /tmp/npmTestPublished/node_modules/electron-lite/npm_scripts.sh</tspan>

<tspan x="10" y="3354">jslint - 8ms /tmp/npmTestPublished/node_modules/electron-lite/package.json</tspan>

<tspan x="10" y="3370">--- /tmp/npmTestPublished/node_modules/electron-lite/test.js.autofix.old	2019-08-03 11:33:16.187\</tspan>
<tspan x="10" y="3386">408263 +0000</tspan>

<tspan x="10" y="3402">+++ /tmp/npmTestPublished/node_modules/electron-lite/test.js	2019-08-03 11:33:16.187408263 +0000</tspan>

<tspan x="10" y="3418">@@ -46,30 +46,30 @@</tspan>

<tspan x="10" y="3434">     // init function</tspan>

<tspan x="10" y="3450">     local.assertThrow = function (passed, message) {</tspan>

<tspan x="10" y="3466">     /*</tspan>

<tspan x="10" y="3482">-     * this function will throw the error &lt;message&gt; if &lt;passed&gt; is falsy</tspan>

<tspan x="10" y="3498">+     * this function will throw error-&lt;message&gt; if &lt;passed&gt; is falsy</tspan>

<tspan x="10" y="3514">      */</tspan>

<tspan x="10" y="3530">-        var error;</tspan>

<tspan x="10" y="3546">+        var err;</tspan>

<tspan x="10" y="3562">         if (passed) {</tspan>

<tspan x="10" y="3578">             return;</tspan>

<tspan x="10" y="3594">         }</tspan>

<tspan x="10" y="3610">-        error = (</tspan>

<tspan x="10" y="3626">+        err = (</tspan>

<tspan x="10" y="3642">             // ternary-condition</tspan>

<tspan x="10" y="3658">             (</tspan>

<tspan x="10" y="3674">                 message</tspan>

<tspan x="10" y="3690">                 &amp;&amp; typeof message.message === "string"</tspan>

<tspan x="10" y="3706">                 &amp;&amp; typeof message.stack === "string"</tspan>

<tspan x="10" y="3722">             )</tspan>

<tspan x="10" y="3738">-            // if message is an error-object, then leave it as is</tspan>

<tspan x="10" y="3754">+            // if message is error-object, then leave as is</tspan>

<tspan x="10" y="3770">             ? message</tspan>

<tspan x="10" y="3786">             : new Error(</tspan>

<tspan x="10" y="3802">                 typeof message === "string"</tspan>

<tspan x="10" y="3818">-                // if message is a string, then leave it as is</tspan>

<tspan x="10" y="3834">+                // if message is a string, then leave as is</tspan>

<tspan x="10" y="3850">                 ? message</tspan>

<tspan x="10" y="3866">                 // else JSON.stringify message</tspan>

<tspan x="10" y="3882">                 : JSON.stringify(message, null, 4)</tspan>

<tspan x="10" y="3898">             )</tspan>

<tspan x="10" y="3914">         );</tspan>

<tspan x="10" y="3930">-        throw error;</tspan>

<tspan x="10" y="3946">+        throw err;</tspan>

<tspan x="10" y="3962">     };</tspan>

<tspan x="10" y="3978">     local.functionOrNop = function (fnc) {</tspan>

<tspan x="10" y="3994">     /*</tspan>

<tspan x="10" y="4010">@@ -97,7 +97,8 @@</tspan>

<tspan x="10" y="4026">      * null, undefined, or empty-string,</tspan>

<tspan x="10" y="4042">      * then overwrite them with items from &lt;source&gt;</tspan>

<tspan x="10" y="4058">      */</tspan>

<tspan x="10" y="4074">-        Object.keys(source).forEach(function (key) {</tspan>

<tspan x="10" y="4090">+        target = target || {};</tspan>

<tspan x="10" y="4106">+        Object.keys(source || {}).forEach(function (key) {</tspan>

<tspan x="10" y="4122">             if (</tspan>

<tspan x="10" y="4138">                 target[key] === null</tspan>

<tspan x="10" y="4154">                 || target[key] === undefined</tspan>

<tspan x="10" y="4170">@@ -106,6 +107,7 @@</tspan>

<tspan x="10" y="4186">                 target[key] = target[key] || source[key];</tspan>

<tspan x="10" y="4202">             }</tspan>

<tspan x="10" y="4218">         });</tspan>

<tspan x="10" y="4234">+        return target;</tspan>

<tspan x="10" y="4250">     };</tspan>

<tspan x="10" y="4266">     // require builtin</tspan>

<tspan x="10" y="4282">     if (!local.isBrowser) {</tspan>

<tspan x="10" y="4298">@@ -178,7 +180,9 @@</tspan>

<tspan x="10" y="4314">         local.electron.NativeImage = local.electron.nativeImage.createEmpty().constructor;</tspan>

<tspan x="10" y="4330">         local.electron.WebContents = local.electron.webContents.create().constructor;</tspan>

<tspan x="10" y="4346">     }</tspan>

<tspan x="10" y="4362">-    options = {moduleDict: {electron: local.electron}};</tspan>

<tspan x="10" y="4378">+    options = {</tspan>

<tspan x="10" y="4394">+        moduleDict: {electron: local.electron}</tspan>

<tspan x="10" y="4410">+    };</tspan>

<tspan x="10" y="4426">     local.buildApidoc(options, onError);</tspan>

<tspan x="10" y="4442"> };</tspan>

<tspan x="10" y="4458"> </tspan>

<tspan x="10" y="4474">jslint-autofix - modified and saved file /tmp/npmTestPublished/node_modules/electron-lite/test.j\</tspan>
<tspan x="10" y="4490">s</tspan>

<tspan x="10" y="4506">jslint - 112ms /tmp/npmTestPublished/node_modules/electron-lite/test.js</tspan>

<tspan x="10" y="4522">testRunDefault - 18229 ms - [node test-case 1 of 8 passed] - testCase_buildApidoc_default</tspan>

<tspan x="10" y="4538">testRunDefault - 18245 ms - [node test-case 2 of 8 passed] - testCase_buildApp_default</tspan>

<tspan x="10" y="4554">testRunDefault - 18246 ms - [node test-case 3 of 8 passed] - testCase_buildLib_default</tspan>

<tspan x="10" y="4570">testRunDefault - 18254 ms - [node test-case 4 of 8 passed] - testCase_buildReadme_default</tspan>

<tspan x="10" y="4586">testRunDefault - 18255 ms - [node test-case 5 of 8 passed] - testCase_buildTest_default</tspan>

<tspan x="10" y="4602">testRunDefault - 18257 ms - [node test-case 6 of 8 passed] - testCase_nop_default</tspan>

<tspan x="10" y="4618">Xlib:  extension "RANDR" missing on display ":99.0".</tspan>

<tspan x="10" y="4634">[6932:0803/113334.999187:ERROR:bus.cc(395)] Failed to connect to the bus: Could not parse server\</tspan>
<tspan x="10" y="4650"> address: Unknown address type (examples of valid types are "tcp" and on UNIX "unix")</tspan>

<tspan x="10" y="4666">[6932:0803/113335.022634:ERROR:bus.cc(395)] Failed to connect to the bus: Could not parse server\</tspan>
<tspan x="10" y="4682"> address: Unknown address type (examples of valid types are "tcp" and on UNIX "unix")</tspan>

<tspan x="10" y="4698">[6965:0803/113335.104553:ERROR:sandbox_linux.cc(344)] InitializeSandbox() called with multiple t\</tspan>
<tspan x="10" y="4714">hreads in process gpu-process.</tspan>

<tspan x="10" y="4730">[6932:0803/113335.379056:INFO:CONSOLE(188)] "%cElectron Security Warning (Insecure Content-Secur\</tspan>
<tspan x="10" y="4746">ity-Policy)", source: /tmp/npmTestPublished/node_modules/electron-lite/external/resources/electr\</tspan>
<tspan x="10" y="4762">on.asar/renderer/security-warnings.js (188)</tspan>

<tspan x="10" y="4778">[6932:0803/113335.528063:INFO:CONSOLE(188)] "%cElectron Security Warning (Insecure Content-Secur\</tspan>
<tspan x="10" y="4794">ity-Policy)", source: /tmp/npmTestPublished/node_modules/electron-lite/external/resources/electr\</tspan>
<tspan x="10" y="4810">on.asar/renderer/security-warnings.js (188)</tspan>

<tspan x="10" y="4826">created screenshot file /tmp/screenshot.testExampleJs.browser..png</tspan>

<tspan x="10" y="4842">testRunDefault - 20405 ms - [node test-case 7 of 8 passed] - testCase_exampleJs_exit</tspan>

<tspan x="10" y="4858">testRunDefault - 20409 ms - testCase pending - testCase_webpage_default ...</tspan>

<tspan x="10" y="4874">[6932:0803/113336.615717:INFO:CONSOLE(8)] "Uncaught ReferenceError: process is not defined", sou\</tspan>
<tspan x="10" y="4890">rce: http://127.0.0.1:47599/assets.example.js (8)</tspan>

<tspan x="10" y="4906">[6932:0803/113336.632123:INFO:CONSOLE(8)] "Uncaught ReferenceError: process is not defined", sou\</tspan>
<tspan x="10" y="4922">rce: http://127.0.0.1:47599/assets.example.js (8)</tspan>

<tspan x="10" y="4938">[6932:0803/113336.635952:INFO:CONSOLE(3188)] "db - dropping database ...", source: http://127.0.\</tspan>
<tspan x="10" y="4954">0.1:47599/assets.utility2.rollup.js (3188)</tspan>

<tspan x="10" y="4970">[6932:0803/113336.655693:INFO:CONSOLE(128)] "%cElectron Security Warning (Insecure Resources)", \</tspan>
<tspan x="10" y="4986">source: /tmp/npmTestPublished/node_modules/electron-lite/external/resources/electron.asar/render\</tspan>
<tspan x="10" y="5002">er/security-warnings.js (128)</tspan>

<tspan x="10" y="5018">[6932:0803/113336.656820:INFO:CONSOLE(188)] "%cElectron Security Warning (Insecure Content-Secur\</tspan>
<tspan x="10" y="5034">ity-Policy)", source: /tmp/npmTestPublished/node_modules/electron-lite/external/resources/electr\</tspan>
<tspan x="10" y="5050">on.asar/renderer/security-warnings.js (188)</tspan>

<tspan x="10" y="5066">[6932:0803/113336.671762:INFO:CONSOLE(3188)] "db - dropping database ...", source: http://127.0.\</tspan>
<tspan x="10" y="5082">0.1:47599/assets.utility2.rollup.js (3188)</tspan>

<tspan x="10" y="5098">[6932:0803/113336.702538:INFO:CONSOLE(128)] "%cElectron Security Warning (Insecure Resources)", \</tspan>
<tspan x="10" y="5114">source: /tmp/npmTestPublished/node_modules/electron-lite/external/resources/electron.asar/render\</tspan>
<tspan x="10" y="5130">er/security-warnings.js (128)</tspan>

<tspan x="10" y="5146">[6932:0803/113336.704881:INFO:CONSOLE(188)] "%cElectron Security Warning (Insecure Content-Secur\</tspan>
<tspan x="10" y="5162">ity-Policy)", source: /tmp/npmTestPublished/node_modules/electron-lite/external/resources/electr\</tspan>
<tspan x="10" y="5178">on.asar/renderer/security-warnings.js (188)</tspan>

<tspan x="10" y="5194">[6932:0803/113336.744068:INFO:CONSOLE(481)] "domOnEventWindowOnloadTimeElapsed = 898", source: /\</tspan>
<tspan x="10" y="5210">tmp/npmTestPublished/node_modules/electron-lite/tmp/electron.16c5741a0640.67d5dd93eb01.html (481\</tspan>
<tspan x="10" y="5226">)</tspan>

<tspan x="10" y="5242">[6932:0803/113336.779798:INFO:CONSOLE(481)] "domOnEventWindowOnloadTimeElapsed = 656", source: /\</tspan>
<tspan x="10" y="5258">tmp/npmTestPublished/node_modules/electron-lite/tmp/electron.16c5741a0640.67d5dd93eb01.html (481\</tspan>
<tspan x="10" y="5274">)</tspan>

<tspan x="10" y="5290">[6932:0803/113337.388671:WARNING:quota_manager.cc(1629)] No storage quota provided in QuotaSetti\</tspan>
<tspan x="10" y="5306">ngs.</tspan>

<tspan x="10" y="5322">[6932:0803/113337.403275:INFO:CONSOLE(25615)] "testRunDefault - 7 ms - [browser test-case 1 of 4\</tspan>
<tspan x="10" y="5338"> passed] - testCase_buildApidoc_default", source: http://127.0.0.1:47599/assets.utility2.rollup.\</tspan>
<tspan x="10" y="5354">js (25615)</tspan>

<tspan x="10" y="5370">[6932:0803/113337.405316:INFO:CONSOLE(25615)] "testRunDefault - 8 ms - [browser test-case 2 of 4\</tspan>
<tspan x="10" y="5386"> passed] - testCase_buildApp_default", source: http://127.0.0.1:47599/assets.utility2.rollup.js \</tspan>
<tspan x="10" y="5402">(25615)</tspan>

<tspan x="10" y="5418">[6932:0803/113337.407064:INFO:CONSOLE(25615)] "testRunDefault - 11 ms - [browser test-case 3 of \</tspan>
<tspan x="10" y="5434">4 passed] - testCase_exampleJs_exit", source: http://127.0.0.1:47599/assets.utility2.rollup.js (\</tspan>
<tspan x="10" y="5450">25615)</tspan>

<tspan x="10" y="5466">[6932:0803/113337.409134:INFO:CONSOLE(25615)] "testRunDefault - 13 ms - [browser test-case 4 of \</tspan>
<tspan x="10" y="5482">4 passed] - testCase_nop_default", source: http://127.0.0.1:47599/assets.utility2.rollup.js (256\</tspan>
<tspan x="10" y="5498">15)</tspan>

<tspan x="10" y="5514">[6932:0803/113337.423373:INFO:CONSOLE(25615)] "testRunDefault - 27 ms - [browser test-case 1 of \</tspan>
<tspan x="10" y="5530">4 passed] - testCase_buildApidoc_default", source: http://127.0.0.1:47599/assets.utility2.rollup\</tspan>
<tspan x="10" y="5546">.js (25615)</tspan>

<tspan x="10" y="5562">[6932:0803/113337.429465:INFO:CONSOLE(25615)] "testRunDefault - 33 ms - [browser test-case 2 of \</tspan>
<tspan x="10" y="5578">4 passed] - testCase_buildApp_default", source: http://127.0.0.1:47599/assets.utility2.rollup.js\</tspan>
<tspan x="10" y="5594"> (25615)</tspan>

<tspan x="10" y="5610">[6932:0803/113337.430965:INFO:CONSOLE(25615)] "testRunDefault - 35 ms - [browser test-case 3 of \</tspan>
<tspan x="10" y="5626">4 passed] - testCase_exampleJs_exit", source: http://127.0.0.1:47599/assets.utility2.rollup.js (\</tspan>
<tspan x="10" y="5642">25615)</tspan>

<tspan x="10" y="5658">[6932:0803/113337.434845:INFO:CONSOLE(25615)] "testRunDefault - 39 ms - [browser test-case 4 of \</tspan>
<tspan x="10" y="5674">4 passed] - testCase_nop_default", source: http://127.0.0.1:47599/assets.utility2.rollup.js (256\</tspan>
<tspan x="10" y="5690">15)</tspan>

<tspan x="10" y="5706">[6932:0803/113338.422507:INFO:CONSOLE(8278)] "----------|-----------|-----------|-----------|---\</tspan>
<tspan x="10" y="5722">--------|</tspan>

<tspan x="10" y="5738">File      |   % Stmts |% Branches |   % Funcs |   % Lines |</tspan>

<tspan x="10" y="5754">----------|-----------|-----------|-----------|-----------|</tspan>

<tspan x="10" y="5770">----------|-----------|-----------|-----------|-----------|</tspan>

<tspan x="10" y="5786">All files |       100 |       100 |       100 |       100 |</tspan>

<tspan x="10" y="5802">----------|-----------|-----------|-----------|-----------|</tspan>

<tspan x="10" y="5818">", source: http://127.0.0.1:47599/assets.utility2.rollup.js (8278)</tspan>

<tspan x="10" y="5834">[6932:0803/113338.438031:INFO:CONSOLE(5943)] "created coverage file /tmp/build/coverage.html/ind\</tspan>
<tspan x="10" y="5850">ex.html", source: http://127.0.0.1:47599/assets.utility2.rollup.js (5943)</tspan>

<tspan x="10" y="5866">[6932:0803/113338.461561:INFO:CONSOLE(8278)] "----------|-----------|-----------|-----------|---\</tspan>
<tspan x="10" y="5882">--------|</tspan>

<tspan x="10" y="5898">File      |   % Stmts |% Branches |   % Funcs |   % Lines |</tspan>

<tspan x="10" y="5914">----------|-----------|-----------|-----------|-----------|</tspan>

<tspan x="10" y="5930">----------|-----------|-----------|-----------|-----------|</tspan>

<tspan x="10" y="5946">All files |       100 |       100 |       100 |       100 |</tspan>

<tspan x="10" y="5962">----------|-----------|-----------|-----------|-----------|</tspan>

<tspan x="10" y="5978">", source: http://127.0.0.1:47599/assets.utility2.rollup.js (8278)</tspan>

<tspan x="10" y="5994">[6932:0803/113338.468819:INFO:CONSOLE(5943)] "created coverage file /tmp/build/coverage.html/ind\</tspan>
<tspan x="10" y="6010">ex.html", source: http://127.0.0.1:47599/assets.utility2.rollup.js (5943)</tspan>

<tspan x="10" y="6026">testRunDefault - 25434 ms - testCase pending - testCase_webpage_default ...</tspan>

<tspan x="10" y="6042">[6932:0803/113341.646003:INFO:CONSOLE(135)] "null", source: fs.js (135)</tspan>

<tspan x="10" y="6058">[6932:0803/113341.817156:INFO:CONSOLE(135)] "Error: ENOENT: no such file or directory, rename '/\</tspan>
<tspan x="10" y="6074">tmp/npmTestPublished/node_modules/electron-lite/tmp/electron.16c5741a0640.67d5dd93eb01.html' -&gt; \</tspan>
<tspan x="10" y="6090">'/tmp/npmTestPublished/node_modules/electron-lite/tmp/electron.html'", source: fs.js (135)</tspan>

<tspan x="10" y="6106"></tspan>

<tspan x="10" y="6122">browserTest - created screenshot file /home/travis/build/kaizhu256/node-electron-lite/tmp/build/\</tspan>
<tspan x="10" y="6138">screenshot.npmTestPublished.browser.%2F.png</tspan>

<tspan x="10" y="6154"></tspan>

<tspan x="10" y="6170">browserTest - created screenshot file /home/travis/build/kaizhu256/node-electron-lite/tmp/build/\</tspan>
<tspan x="10" y="6186">screenshot.npmTestPublished.browser.%2F.html</tspan>

<tspan x="10" y="6202"></tspan>

<tspan x="10" y="6218">browserTest - created screenshot file /home/travis/build/kaizhu256/node-electron-lite/tmp/build/\</tspan>
<tspan x="10" y="6234">screenshot.npmTestPublished.browser.%2F.png</tspan>

<tspan x="10" y="6250"></tspan>

<tspan x="10" y="6266">browserTest - created screenshot file /home/travis/build/kaizhu256/node-electron-lite/tmp/build/\</tspan>
<tspan x="10" y="6282">screenshot.npmTestPublished.browser.%2F.html</tspan>

<tspan x="10" y="6298">testRunDefault - 25706 ms - [node test-case 8 of 8 passed] - testCase_webpage_default</tspan>

<tspan x="10" y="6314">----------------------|-----------|-----------|-----------|-----------|</tspan>

<tspan x="10" y="6330">File                  |   % Stmts |% Branches |   % Funcs |   % Lines |</tspan>

<tspan x="10" y="6346">----------------------|-----------|-----------|-----------|-----------|</tspan>

<tspan x="10" y="6362">   electron-lite/     |       100 |       100 |       100 |       100 |</tspan>

<tspan x="10" y="6378">      example.js      |       100 |       100 |       100 |       100 |</tspan>

<tspan x="10" y="6394">      lib.electron.js |       100 |       100 |       100 |       100 |</tspan>

<tspan x="10" y="6410">      test.js         |       100 |       100 |       100 |       100 |</tspan>

<tspan x="10" y="6426">----------------------|-----------|-----------|-----------|-----------|</tspan>

<tspan x="10" y="6442">All files             |       100 |       100 |       100 |       100 |</tspan>

<tspan x="10" y="6458">----------------------|-----------|-----------|-----------|-----------|</tspan>

<tspan x="10" y="6474"></tspan>

<tspan x="10" y="6490">created coverage file /tmp/npmTestPublished/node_modules/electron-lite/tmp/build/coverage.html/i\</tspan>
<tspan x="10" y="6506">ndex.html</tspan>

<tspan x="10" y="6522"></tspan>

<tspan x="10" y="6538">-------------------------------------------------------</tspan>

<tspan x="10" y="6554">| test-report - npmTestPublished - browser - / - Mozilla/5.0 (X11; Linux x86_64) AppleWebKit/537\</tspan>
<tspan x="10" y="6570">.36 (KHTML, like Gecko) Chrome/61.0.3163.100 Electron/2.0.16 Safari/537.36 - 2019-08-03T11:33:36\</tspan>
<tspan x="10" y="6586">.022Z</tspan>

<tspan x="10" y="6602">|    1005 ms            0 failed        4 passed      |</tspan>

<tspan x="10" y="6618">-------------------------------------------------------</tspan>

<tspan x="10" y="6634">| test-report - npmTestPublished - node - linux v8.9.3 - 2019-08-03T11:33:15.645Z</tspan>

<tspan x="10" y="6650">|   25706 ms            0 failed        8 passed      |</tspan>

<tspan x="10" y="6666">-------------------------------------------------------</tspan>

<tspan x="10" y="6682"></tspan>

<tspan x="10" y="6698">created test-report file /tmp/npmTestPublished/node_modules/electron-lite/tmp/build/test-report.\</tspan>
<tspan x="10" y="6714">html</tspan>

<tspan x="10" y="6730"></tspan>

<tspan x="10" y="6746"></tspan>

<tspan x="10" y="6762">npmTestPublished - 0 failed tests</tspan>

<tspan x="10" y="6778"></tspan>

<tspan x="10" y="6794"></tspan>

<tspan x="10" y="6810">[MODE_BUILD=npmTestPublished] - 2019-08-03T11:34:06.636Z - EXIT_CODE - 0</tspan>

</text>
</svg>
