<svg height="7134" width="720" xmlns="http://www.w3.org/2000/svg">
<rect height="7134" fill="#555" width="720"></rect>
<text fill="#7f7" font-family="Courier New" font-size="12" xml:space="preserve">
<tspan x="10" y="26"></tspan>

<tspan x="10" y="42">[MODE_BUILD=npmTestPublished] - 2019-04-20T19:27:31.341Z - npm-testing /tmp/npmTestPublished/nod\</tspan>
<tspan x="10" y="58">e_modules/electron-lite</tspan>

<tspan x="10" y="74"></tspan>

<tspan x="10" y="90"></tspan>

<tspan x="10" y="106">covering $ /tmp/npmTestPublished/node_modules/electron-lite/external/electron /tmp/npmTestPublis\</tspan>
<tspan x="10" y="122">hed/node_modules/electron-lite/test.js</tspan>

<tspan x="10" y="138">&gt; http-server listening on port 63769</tspan>

<tspan x="10" y="154">db - dropping database ...</tspan>

<tspan x="10" y="170">Xlib:  extension "RANDR" missing on display ":99.0".</tspan>

<tspan x="10" y="186">--- /tmp/npmTestPublished/node_modules/electron-lite/lib.electron.js.autofix.old	2019-04-20 19:2\</tspan>
<tspan x="10" y="202">7:32.521356607 +0000</tspan>

<tspan x="10" y="218">+++ /tmp/npmTestPublished/node_modules/electron-lite/lib.electron.js	2019-04-20 19:27:32.5213566\</tspan>
<tspan x="10" y="234">07 +0000</tspan>

<tspan x="10" y="250">@@ -56,30 +56,30 @@</tspan>

<tspan x="10" y="266">     // init function</tspan>

<tspan x="10" y="282">     local.assertThrow = function (passed, message) {</tspan>

<tspan x="10" y="298">     /*</tspan>

<tspan x="10" y="314">-     * this function will throw the error &lt;message&gt; if &lt;passed&gt; is falsy</tspan>

<tspan x="10" y="330">+     * this function will throw error-&lt;message&gt; if &lt;passed&gt; is falsy</tspan>

<tspan x="10" y="346">      */</tspan>

<tspan x="10" y="362">-        var error;</tspan>

<tspan x="10" y="378">+        var err;</tspan>

<tspan x="10" y="394">         if (passed) {</tspan>

<tspan x="10" y="410">             return;</tspan>

<tspan x="10" y="426">         }</tspan>

<tspan x="10" y="442">-        error = (</tspan>

<tspan x="10" y="458">+        err = (</tspan>

<tspan x="10" y="474">             // ternary-condition</tspan>

<tspan x="10" y="490">             (</tspan>

<tspan x="10" y="506">                 message</tspan>

<tspan x="10" y="522">                 &amp;&amp; typeof message.message === "string"</tspan>

<tspan x="10" y="538">                 &amp;&amp; typeof message.stack === "string"</tspan>

<tspan x="10" y="554">             )</tspan>

<tspan x="10" y="570">-            // if message is an error-object, then leave it as is</tspan>

<tspan x="10" y="586">+            // if message is error-object, then leave as is</tspan>

<tspan x="10" y="602">             ? message</tspan>

<tspan x="10" y="618">             : new Error(</tspan>

<tspan x="10" y="634">                 typeof message === "string"</tspan>

<tspan x="10" y="650">-                // if message is a string, then leave it as is</tspan>

<tspan x="10" y="666">+                // if message is a string, then leave as is</tspan>

<tspan x="10" y="682">                 ? message</tspan>

<tspan x="10" y="698">                 // else JSON.stringify message</tspan>

<tspan x="10" y="714">                 : JSON.stringify(message, null, 4)</tspan>

<tspan x="10" y="730">             )</tspan>

<tspan x="10" y="746">         );</tspan>

<tspan x="10" y="762">-        throw error;</tspan>

<tspan x="10" y="778">+        throw err;</tspan>

<tspan x="10" y="794">     };</tspan>

<tspan x="10" y="810">     local.functionOrNop = function (fnc) {</tspan>

<tspan x="10" y="826">     /*</tspan>

<tspan x="10" y="842">@@ -107,7 +107,8 @@</tspan>

<tspan x="10" y="858">      * null, undefined, or empty-string,</tspan>

<tspan x="10" y="874">      * then overwrite them with items from &lt;source&gt;</tspan>

<tspan x="10" y="890">      */</tspan>

<tspan x="10" y="906">-        Object.keys(source).forEach(function (key) {</tspan>

<tspan x="10" y="922">+        target = target || {};</tspan>

<tspan x="10" y="938">+        Object.keys(source || {}).forEach(function (key) {</tspan>

<tspan x="10" y="954">             if (</tspan>

<tspan x="10" y="970">                 target[key] === null</tspan>

<tspan x="10" y="986">                 || target[key] === undefined</tspan>

<tspan x="10" y="1002">@@ -116,6 +117,7 @@</tspan>

<tspan x="10" y="1018">                 target[key] = target[key] || source[key];</tspan>

<tspan x="10" y="1034">             }</tspan>

<tspan x="10" y="1050">         });</tspan>

<tspan x="10" y="1066">+        return target;</tspan>

<tspan x="10" y="1082">     };</tspan>

<tspan x="10" y="1098">     // require builtin</tspan>

<tspan x="10" y="1114">     if (!local.isBrowser) {</tspan>

<tspan x="10" y="1130">@@ -191,16 +193,13 @@</tspan>

<tspan x="10" y="1146"> if (local.isBrowser || module !== require.main || process.versions.electron) {</tspan>

<tspan x="10" y="1162">     return;</tspan>

<tspan x="10" y="1178"> }</tspan>

<tspan x="10" y="1194">-([</tspan>

<tspan x="10" y="1210">-    (</tspan>

<tspan x="10" y="1226">-        process.platform === "darwin"</tspan>

<tspan x="10" y="1242">-        &amp;&amp; __dirname + "/external/Atom.app/Contents/MacOS/Atom"</tspan>

<tspan x="10" y="1258">-    ), (</tspan>

<tspan x="10" y="1274">-        process.platform === "darwin"</tspan>

<tspan x="10" y="1290">-        &amp;&amp; __dirname + "/external/Electron.app/Contents/MacOS/Electron"</tspan>

<tspan x="10" y="1306">-    ),</tspan>

<tspan x="10" y="1322">-    __dirname + "/external/electron"</tspan>

<tspan x="10" y="1338">-]).some(function (file) {</tspan>

<tspan x="10" y="1354">+([(</tspan>

<tspan x="10" y="1370">+    process.platform === "darwin"</tspan>

<tspan x="10" y="1386">+    &amp;&amp; __dirname + "/external/Atom.app/Contents/MacOS/Atom"</tspan>

<tspan x="10" y="1402">+), (</tspan>

<tspan x="10" y="1418">+    process.platform === "darwin"</tspan>

<tspan x="10" y="1434">+    &amp;&amp; __dirname + "/external/Electron.app/Contents/MacOS/Electron"</tspan>

<tspan x="10" y="1450">+), __dirname + "/external/electron"]).some(function (file) {</tspan>

<tspan x="10" y="1466">     if (file &amp;&amp; local.fs.existsSync(file)) {</tspan>

<tspan x="10" y="1482">         local.__filename = file;</tspan>

<tspan x="10" y="1498">         return true;</tspan>

<tspan x="10" y="1514">@@ -210,7 +209,9 @@</tspan>

<tspan x="10" y="1530"> local.child = local.child_process.spawn(</tspan>

<tspan x="10" y="1546">     local.__filename,</tspan>

<tspan x="10" y="1562">     process.argv.slice(2),</tspan>

<tspan x="10" y="1578">-    {stdio: [0, "pipe", 2]}</tspan>

<tspan x="10" y="1594">+    {</tspan>

<tspan x="10" y="1610">+        stdio: [0, "pipe", 2]</tspan>

<tspan x="10" y="1626">+    }</tspan>

<tspan x="10" y="1642"> );</tspan>

<tspan x="10" y="1658"> local.child.on("exit", process.exit);</tspan>

<tspan x="10" y="1674"> local.child.stdout.on("data", function (chunk, encoding, cb) {</tspan>

<tspan x="10" y="1690">jslint-autofix - modified and saved file /tmp/npmTestPublished/node_modules/electron-lite/lib.el\</tspan>
<tspan x="10" y="1706">ectron.js</tspan>

<tspan x="10" y="1722">jslint - 137ms /tmp/npmTestPublished/node_modules/electron-lite/lib.electron.js</tspan>

<tspan x="10" y="1738">jslint - 40ms /tmp/npmTestPublished/node_modules/electron-lite/npm_scripts.sh</tspan>

<tspan x="10" y="1754">jslint - 0ms /tmp/npmTestPublished/node_modules/electron-lite/package.json</tspan>

<tspan x="10" y="1770">--- /tmp/npmTestPublished/node_modules/electron-lite/test.js.autofix.old	2019-04-20 19:27:32.725\</tspan>
<tspan x="10" y="1786">264198 +0000</tspan>

<tspan x="10" y="1802">+++ /tmp/npmTestPublished/node_modules/electron-lite/test.js	2019-04-20 19:27:32.725264198 +0000</tspan>

<tspan x="10" y="1818">@@ -46,30 +46,30 @@</tspan>

<tspan x="10" y="1834">     // init function</tspan>

<tspan x="10" y="1850">     local.assertThrow = function (passed, message) {</tspan>

<tspan x="10" y="1866">     /*</tspan>

<tspan x="10" y="1882">-     * this function will throw the error &lt;message&gt; if &lt;passed&gt; is falsy</tspan>

<tspan x="10" y="1898">+     * this function will throw error-&lt;message&gt; if &lt;passed&gt; is falsy</tspan>

<tspan x="10" y="1914">      */</tspan>

<tspan x="10" y="1930">-        var error;</tspan>

<tspan x="10" y="1946">+        var err;</tspan>

<tspan x="10" y="1962">         if (passed) {</tspan>

<tspan x="10" y="1978">             return;</tspan>

<tspan x="10" y="1994">         }</tspan>

<tspan x="10" y="2010">-        error = (</tspan>

<tspan x="10" y="2026">+        err = (</tspan>

<tspan x="10" y="2042">             // ternary-condition</tspan>

<tspan x="10" y="2058">             (</tspan>

<tspan x="10" y="2074">                 message</tspan>

<tspan x="10" y="2090">                 &amp;&amp; typeof message.message === "string"</tspan>

<tspan x="10" y="2106">                 &amp;&amp; typeof message.stack === "string"</tspan>

<tspan x="10" y="2122">             )</tspan>

<tspan x="10" y="2138">-            // if message is an error-object, then leave it as is</tspan>

<tspan x="10" y="2154">+            // if message is error-object, then leave as is</tspan>

<tspan x="10" y="2170">             ? message</tspan>

<tspan x="10" y="2186">             : new Error(</tspan>

<tspan x="10" y="2202">                 typeof message === "string"</tspan>

<tspan x="10" y="2218">-                // if message is a string, then leave it as is</tspan>

<tspan x="10" y="2234">+                // if message is a string, then leave as is</tspan>

<tspan x="10" y="2250">                 ? message</tspan>

<tspan x="10" y="2266">                 // else JSON.stringify message</tspan>

<tspan x="10" y="2282">                 : JSON.stringify(message, null, 4)</tspan>

<tspan x="10" y="2298">             )</tspan>

<tspan x="10" y="2314">         );</tspan>

<tspan x="10" y="2330">-        throw error;</tspan>

<tspan x="10" y="2346">+        throw err;</tspan>

<tspan x="10" y="2362">     };</tspan>

<tspan x="10" y="2378">     local.functionOrNop = function (fnc) {</tspan>

<tspan x="10" y="2394">     /*</tspan>

<tspan x="10" y="2410">@@ -97,7 +97,8 @@</tspan>

<tspan x="10" y="2426">      * null, undefined, or empty-string,</tspan>

<tspan x="10" y="2442">      * then overwrite them with items from &lt;source&gt;</tspan>

<tspan x="10" y="2458">      */</tspan>

<tspan x="10" y="2474">-        Object.keys(source).forEach(function (key) {</tspan>

<tspan x="10" y="2490">+        target = target || {};</tspan>

<tspan x="10" y="2506">+        Object.keys(source || {}).forEach(function (key) {</tspan>

<tspan x="10" y="2522">             if (</tspan>

<tspan x="10" y="2538">                 target[key] === null</tspan>

<tspan x="10" y="2554">                 || target[key] === undefined</tspan>

<tspan x="10" y="2570">@@ -106,6 +107,7 @@</tspan>

<tspan x="10" y="2586">                 target[key] = target[key] || source[key];</tspan>

<tspan x="10" y="2602">             }</tspan>

<tspan x="10" y="2618">         });</tspan>

<tspan x="10" y="2634">+        return target;</tspan>

<tspan x="10" y="2650">     };</tspan>

<tspan x="10" y="2666">     // require builtin</tspan>

<tspan x="10" y="2682">     if (!local.isBrowser) {</tspan>

<tspan x="10" y="2698">@@ -178,7 +180,9 @@</tspan>

<tspan x="10" y="2714">         local.electron.NativeImage = local.electron.nativeImage.createEmpty().constructor;</tspan>

<tspan x="10" y="2730">         local.electron.WebContents = local.electron.webContents.create().constructor;</tspan>

<tspan x="10" y="2746">     }</tspan>

<tspan x="10" y="2762">-    options = {moduleDict: {electron: local.electron}};</tspan>

<tspan x="10" y="2778">+    options = {</tspan>

<tspan x="10" y="2794">+        moduleDict: {electron: local.electron}</tspan>

<tspan x="10" y="2810">+    };</tspan>

<tspan x="10" y="2826">     local.buildApidoc(options, onError);</tspan>

<tspan x="10" y="2842"> };</tspan>

<tspan x="10" y="2858"> </tspan>

<tspan x="10" y="2874">jslint-autofix - modified and saved file /tmp/npmTestPublished/node_modules/electron-lite/test.j\</tspan>
<tspan x="10" y="2890">s</tspan>

<tspan x="10" y="2906">jslint - 134ms /tmp/npmTestPublished/node_modules/electron-lite/test.js</tspan>

<tspan x="10" y="2922">jslint /tmp/npmTestPublished/node_modules/electron-lite/README.md.&lt;```javascript&gt;.js</tspan>

<tspan x="10" y="2938">  1 Unexpected trailing space. // line 122, column 30</tspan>

<tspan x="10" y="2954">    frame: false,</tspan>

<tspan x="10" y="2970">{</tspan>

<tspan x="10" y="2986">    "name": "JSLintError",</tspan>

<tspan x="10" y="3002">    "column": 30,</tspan>

<tspan x="10" y="3018">    "line": 122,</tspan>

<tspan x="10" y="3034">    "code": "unexpected_trailing_space",</tspan>

<tspan x="10" y="3050">    "message": "Unexpected trailing space.",</tspan>

<tspan x="10" y="3066">    "source": "                frame: false, ",</tspan>

<tspan x="10" y="3082">    "ignore": null,</tspan>

<tspan x="10" y="3098">    "c": {},</tspan>

<tspan x="10" y="3114">    "d": {},</tspan>

<tspan x="10" y="3130">    "a": "frame: false,",</tspan>

<tspan x="10" y="3146">    "option": {</tspan>

<tspan x="10" y="3162">        "modeNext": 12,</tspan>

<tspan x="10" y="3178">        "autofix": true,</tspan>

<tspan x="10" y="3194">        "conditional": true,</tspan>

<tspan x="10" y="3210">        "file": "/tmp/npmTestPublished/node_modules/electron-lite/README.md.&lt;```javascript&gt;.js",</tspan>

<tspan x="10" y="3226">        "errorText": "",</tspan>

<tspan x="10" y="3242">        "fileType": ".js",</tspan>

<tspan x="10" y="3258">        "utility2": true,</tspan>

<tspan x="10" y="3274">        "fileType0": ".md",</tspan>

<tspan x="10" y="3290">        "lineOffset": 79,</tspan>

<tspan x="10" y="3306">        "edition": "2018-11-13",</tspan>

<tspan x="10" y="3322">        "id": "(JSLint)",</tspan>

<tspan x="10" y="3338">        "json": false,</tspan>

<tspan x="10" y="3354">        "module": false,</tspan>

<tspan x="10" y="3370">        "ok": false,</tspan>

<tspan x="10" y="3386">        "stop": false,</tspan>

<tspan x="10" y="3402">        "bitwise": true,</tspan>

<tspan x="10" y="3418">        "browser": true,</tspan>

<tspan x="10" y="3434">        "node": true,</tspan>

<tspan x="10" y="3450">        "this": true</tspan>

<tspan x="10" y="3466">    },</tspan>

<tspan x="10" y="3482">    "stack": null,</tspan>

<tspan x="10" y="3498">    "evidence": "                frame: false, "</tspan>

<tspan x="10" y="3514">}</tspan>

<tspan x="10" y="3530">Error</tspan>

<tspan x="10" y="3546">    at warn_at_extra (/tmp/npmTestPublished/node_modules/electron-lite/node_modules/utility2/lib\</tspan>
<tspan x="10" y="3562">.jslint.js:7332:42)</tspan>

<tspan x="10" y="3578">    at warn_at (/tmp/npmTestPublished/node_modules/electron-lite/node_modules/utility2/lib.jslin\</tspan>
<tspan x="10" y="3594">t.js:2621:5)</tspan>

<tspan x="10" y="3610">    at next_line (/tmp/npmTestPublished/node_modules/electron-lite/node_modules/utility2/lib.jsl\</tspan>
<tspan x="10" y="3626">int.js:2761:17)</tspan>

<tspan x="10" y="3642">    at lex (/tmp/npmTestPublished/node_modules/electron-lite/node_modules/utility2/lib.jslint.js\</tspan>
<tspan x="10" y="3658">:3374:27)</tspan>

<tspan x="10" y="3674">    at tokenize (/tmp/npmTestPublished/node_modules/electron-lite/node_modules/utility2/lib.jsli\</tspan>
<tspan x="10" y="3690">nt.js:3634:13)</tspan>

<tspan x="10" y="3706">    at /tmp/npmTestPublished/node_modules/electron-lite/node_modules/utility2/lib.jslint.js:7024\</tspan>
<tspan x="10" y="3722">:9</tspan>

<tspan x="10" y="3738">    at Object.jslint_extra (/tmp/npmTestPublished/node_modules/electron-lite/node_modules/utilit\</tspan>
<tspan x="10" y="3754">y2/lib.jslint.js:7127:21)</tspan>

<tspan x="10" y="3770">    at Object.local.jslintAndPrint (/tmp/npmTestPublished/node_modules/electron-lite/node_module\</tspan>
<tspan x="10" y="3786">s/utility2/lib.jslint.js:7477:41)</tspan>

<tspan x="10" y="3802">    at Object.local.jslintAndPrint (/tmp/npmTestPublished/node_modules/electron-lite/node_module\</tspan>
<tspan x="10" y="3818">s/utility2/lib.jslint.js:7588:18)</tspan>

<tspan x="10" y="3834">    at Object.local.jslintAndPrint (/tmp/npmTestPublished/node_modules/electron-lite/node_module\</tspan>
<tspan x="10" y="3850">s/utility2/lib.jslint.js:7588:18)</tspan>

<tspan x="10" y="3866">  2 Unexpected trailing space. // line 123, column 29</tspan>

<tspan x="10" y="3882">    height: 768,</tspan>

<tspan x="10" y="3898">  3 Unexpected trailing space. // line 124, column 29</tspan>

<tspan x="10" y="3914">    width: 1024,</tspan>

<tspan x="10" y="3930">  4 Unexpected trailing space. // line 125, column 22</tspan>

<tspan x="10" y="3946">    x: 0,</tspan>

<tspan x="10" y="3962">--- /tmp/npmTestPublished/node_modules/electron-lite/README.md.autofix.old	2019-04-20 19:27:32.9\</tspan>
<tspan x="10" y="3978">49162730 +0000</tspan>

<tspan x="10" y="3994">+++ /tmp/npmTestPublished/node_modules/electron-lite/README.md	2019-04-20 19:27:32.949162730 +00\</tspan>
<tspan x="10" y="4010">00</tspan>

<tspan x="10" y="4026">@@ -118,7 +118,13 @@</tspan>

<tspan x="10" y="4042">             break;</tspan>

<tspan x="10" y="4058">         case 2:</tspan>

<tspan x="10" y="4074">             // init options</tspan>

<tspan x="10" y="4090">-            options = {frame: false, height: 768, width: 1024, x: 0, y: 0};</tspan>

<tspan x="10" y="4106">+            options = {</tspan>

<tspan x="10" y="4122">+                frame: false, </tspan>

<tspan x="10" y="4138">+                height: 768, </tspan>

<tspan x="10" y="4154">+                width: 1024, </tspan>

<tspan x="10" y="4170">+                x: 0, </tspan>

<tspan x="10" y="4186">+                y: 0</tspan>

<tspan x="10" y="4202">+            };</tspan>

<tspan x="10" y="4218">             // init browserWindow;</tspan>

<tspan x="10" y="4234">             try {</tspan>

<tspan x="10" y="4250">                 options.BrowserWindow = require("browser-window");</tspan>

<tspan x="10" y="4266">@@ -183,12 +189,6 @@</tspan>

<tspan x="10" y="4282"> </tspan>

<tspan x="10" y="4298"> </tspan>

<tspan x="10" y="4314"> </tspan>

<tspan x="10" y="4330">-</tspan>

<tspan x="10" y="4346">-</tspan>

<tspan x="10" y="4362">-</tspan>

<tspan x="10" y="4378">-</tspan>

<tspan x="10" y="4394">-</tspan>

<tspan x="10" y="4410">-</tspan>

<tspan x="10" y="4426"> # package.json</tspan>

<tspan x="10" y="4442"> ```json</tspan>

<tspan x="10" y="4458"> {</tspan>

<tspan x="10" y="4474">jslint-autofix - modified and saved file /tmp/npmTestPublished/node_modules/electron-lite/README\</tspan>
<tspan x="10" y="4490">.md</tspan>

<tspan x="10" y="4506">jslint - 231ms /tmp/npmTestPublished/node_modules/electron-lite/README.md</tspan>

<tspan x="10" y="4522">testRunDefault - 18726 ms - [node test-case 1 of 8 passed] - testCase_buildApidoc_default</tspan>

<tspan x="10" y="4538">testRunDefault - 18740 ms - [node test-case 2 of 8 passed] - testCase_buildApp_default</tspan>

<tspan x="10" y="4554">testRunDefault - 18741 ms - [node test-case 3 of 8 passed] - testCase_buildLib_default</tspan>

<tspan x="10" y="4570">testRunDefault - 18750 ms - [node test-case 4 of 8 passed] - testCase_buildReadme_default</tspan>

<tspan x="10" y="4586">testRunDefault - 18751 ms - [node test-case 5 of 8 passed] - testCase_buildTest_default</tspan>

<tspan x="10" y="4602">testRunDefault - 18753 ms - [node test-case 6 of 8 passed] - testCase_nop_default</tspan>

<tspan x="10" y="4618">Xlib:  extension "RANDR" missing on display ":99.0".</tspan>

<tspan x="10" y="4634">[5780:0420/192751.917381:ERROR:bus.cc(395)] Failed to connect to the bus: Could not parse server\</tspan>
<tspan x="10" y="4650"> address: Unknown address type (examples of valid types are "tcp" and on UNIX "unix")</tspan>

<tspan x="10" y="4666">[5780:0420/192751.924204:ERROR:bus.cc(395)] Failed to connect to the bus: Could not parse server\</tspan>
<tspan x="10" y="4682"> address: Unknown address type (examples of valid types are "tcp" and on UNIX "unix")</tspan>

<tspan x="10" y="4698">[5816:0420/192752.062245:ERROR:sandbox_linux.cc(344)] InitializeSandbox() called with multiple t\</tspan>
<tspan x="10" y="4714">hreads in process gpu-process.</tspan>

<tspan x="10" y="4730">[5835:0420/192752.130960:ERROR:gl_implementation.cc(245)] Failed to load /tmp/npmTestPublished/n\</tspan>
<tspan x="10" y="4746">ode_modules/electron-lite/external/swiftshader/libGLESv2.so: /tmp/npmTestPublished/node_modules/\</tspan>
<tspan x="10" y="4762">electron-lite/external/swiftshader/libGLESv2.so: cannot open shared object file: No such file or\</tspan>
<tspan x="10" y="4778"> directory</tspan>

<tspan x="10" y="4794">[5835:0420/192752.145514:ERROR:gpu_child_thread.cc(252)] Exiting GPU process due to errors durin\</tspan>
<tspan x="10" y="4810">g initialization</tspan>

<tspan x="10" y="4826">[5841:0420/192752.191598:ERROR:gl_implementation.cc(245)] Failed to load /tmp/npmTestPublished/n\</tspan>
<tspan x="10" y="4842">ode_modules/electron-lite/external/swiftshader/libGLESv2.so: /tmp/npmTestPublished/node_modules/\</tspan>
<tspan x="10" y="4858">electron-lite/external/swiftshader/libGLESv2.so: cannot open shared object file: No such file or\</tspan>
<tspan x="10" y="4874"> directory</tspan>

<tspan x="10" y="4890">[5841:0420/192752.194190:ERROR:gpu_child_thread.cc(252)] Exiting GPU process due to errors durin\</tspan>
<tspan x="10" y="4906">g initialization</tspan>

<tspan x="10" y="4922">[5845:0420/192752.231979:ERROR:gl_implementation.cc(245)] Failed to load /tmp/npmTestPublished/n\</tspan>
<tspan x="10" y="4938">ode_modules/electron-lite/external/swiftshader/libGLESv2.so: /tmp/npmTestPublished/node_modules/\</tspan>
<tspan x="10" y="4954">electron-lite/external/swiftshader/libGLESv2.so: cannot open shared object file: No such file or\</tspan>
<tspan x="10" y="4970"> directory</tspan>

<tspan x="10" y="4986">[5845:0420/192752.235052:ERROR:gpu_child_thread.cc(252)] Exiting GPU process due to errors durin\</tspan>
<tspan x="10" y="5002">g initialization</tspan>

<tspan x="10" y="5018">[5849:0420/192752.271458:ERROR:gl_implementation.cc(245)] Failed to load /tmp/npmTestPublished/n\</tspan>
<tspan x="10" y="5034">ode_modules/electron-lite/external/swiftshader/libGLESv2.so: /tmp/npmTestPublished/node_modules/\</tspan>
<tspan x="10" y="5050">electron-lite/external/swiftshader/libGLESv2.so: cannot open shared object file: No such file or\</tspan>
<tspan x="10" y="5066"> directory</tspan>

<tspan x="10" y="5082">[5849:0420/192752.276541:ERROR:gpu_child_thread.cc(252)] Exiting GPU process due to errors durin\</tspan>
<tspan x="10" y="5098">g initialization</tspan>

<tspan x="10" y="5114">[5780:0420/192752.354591:INFO:CONSOLE(188)] "%cElectron Security Warning (Insecure Content-Secur\</tspan>
<tspan x="10" y="5130">ity-Policy)", source: /tmp/npmTestPublished/node_modules/electron-lite/external/resources/electr\</tspan>
<tspan x="10" y="5146">on.asar/renderer/security-warnings.js (188)</tspan>

<tspan x="10" y="5162">[5780:0420/192752.633725:INFO:CONSOLE(188)] "%cElectron Security Warning (Insecure Content-Secur\</tspan>
<tspan x="10" y="5178">ity-Policy)", source: /tmp/npmTestPublished/node_modules/electron-lite/external/resources/electr\</tspan>
<tspan x="10" y="5194">on.asar/renderer/security-warnings.js (188)</tspan>

<tspan x="10" y="5210">testRunDefault - 20791 ms - testCase pending - testCase_exampleJs_exit, testCase_webpage_default\</tspan>
<tspan x="10" y="5226"> ...</tspan>

<tspan x="10" y="5242">[5780:0420/192753.414020:INFO:CONSOLE(8)] "Uncaught ReferenceError: process is not defined", sou\</tspan>
<tspan x="10" y="5258">rce: http://127.0.0.1:63769/assets.example.js (8)</tspan>

<tspan x="10" y="5274">[5780:0420/192753.433596:INFO:CONSOLE(3190)] "db - dropping database ...", source: http://127.0.\</tspan>
<tspan x="10" y="5290">0.1:63769/assets.utility2.rollup.js (3190)</tspan>

<tspan x="10" y="5306">[5780:0420/192753.455170:WARNING:quota_manager.cc(1629)] No storage quota provided in QuotaSetti\</tspan>
<tspan x="10" y="5322">ngs.</tspan>

<tspan x="10" y="5338">[5780:0420/192753.472956:INFO:CONSOLE(128)] "%cElectron Security Warning (Insecure Resources)", \</tspan>
<tspan x="10" y="5354">source: /tmp/npmTestPublished/node_modules/electron-lite/external/resources/electron.asar/render\</tspan>
<tspan x="10" y="5370">er/security-warnings.js (128)</tspan>

<tspan x="10" y="5386">[5780:0420/192753.477944:INFO:CONSOLE(188)] "%cElectron Security Warning (Insecure Content-Secur\</tspan>
<tspan x="10" y="5402">ity-Policy)", source: /tmp/npmTestPublished/node_modules/electron-lite/external/resources/electr\</tspan>
<tspan x="10" y="5418">on.asar/renderer/security-warnings.js (188)</tspan>

<tspan x="10" y="5434">[5780:0420/192753.516903:INFO:CONSOLE(25495)] "testRunDefault - 11 ms - [browser test-case 1 of \</tspan>
<tspan x="10" y="5450">4 passed] - testCase_buildApidoc_default", source: http://127.0.0.1:63769/assets.utility2.rollup\</tspan>
<tspan x="10" y="5466">.js (25495)</tspan>

<tspan x="10" y="5482">[5780:0420/192753.518579:INFO:CONSOLE(25495)] "testRunDefault - 14 ms - [browser test-case 2 of \</tspan>
<tspan x="10" y="5498">4 passed] - testCase_buildApp_default", source: http://127.0.0.1:63769/assets.utility2.rollup.js\</tspan>
<tspan x="10" y="5514"> (25495)</tspan>

<tspan x="10" y="5530">[5780:0420/192753.519917:INFO:CONSOLE(25495)] "testRunDefault - 15 ms - [browser test-case 3 of \</tspan>
<tspan x="10" y="5546">4 passed] - testCase_exampleJs_exit", source: http://127.0.0.1:63769/assets.utility2.rollup.js (\</tspan>
<tspan x="10" y="5562">25495)</tspan>

<tspan x="10" y="5578">[5780:0420/192753.520991:INFO:CONSOLE(25495)] "testRunDefault - 16 ms - [browser test-case 4 of \</tspan>
<tspan x="10" y="5594">4 passed] - testCase_nop_default", source: http://127.0.0.1:63769/assets.utility2.rollup.js (254\</tspan>
<tspan x="10" y="5610">95)</tspan>

<tspan x="10" y="5626">[5780:0420/192753.557235:INFO:CONSOLE(8)] "Uncaught ReferenceError: process is not defined", sou\</tspan>
<tspan x="10" y="5642">rce: http://127.0.0.1:63769/assets.example.js (8)</tspan>

<tspan x="10" y="5658">[5780:0420/192753.568428:INFO:CONSOLE(3190)] "db - dropping database ...", source: http://127.0.\</tspan>
<tspan x="10" y="5674">0.1:63769/assets.utility2.rollup.js (3190)</tspan>

<tspan x="10" y="5690">[5780:0420/192753.606870:INFO:CONSOLE(128)] "%cElectron Security Warning (Insecure Resources)", \</tspan>
<tspan x="10" y="5706">source: /tmp/npmTestPublished/node_modules/electron-lite/external/resources/electron.asar/render\</tspan>
<tspan x="10" y="5722">er/security-warnings.js (128)</tspan>

<tspan x="10" y="5738">[5780:0420/192753.610570:INFO:CONSOLE(188)] "%cElectron Security Warning (Insecure Content-Secur\</tspan>
<tspan x="10" y="5754">ity-Policy)", source: /tmp/npmTestPublished/node_modules/electron-lite/external/resources/electr\</tspan>
<tspan x="10" y="5770">on.asar/renderer/security-warnings.js (188)</tspan>

<tspan x="10" y="5786">[5780:0420/192753.671464:INFO:CONSOLE(25495)] "testRunDefault - 19 ms - [browser test-case 1 of \</tspan>
<tspan x="10" y="5802">4 passed] - testCase_buildApidoc_default", source: http://127.0.0.1:63769/assets.utility2.rollup\</tspan>
<tspan x="10" y="5818">.js (25495)</tspan>

<tspan x="10" y="5834">[5780:0420/192753.675172:INFO:CONSOLE(25495)] "testRunDefault - 21 ms - [browser test-case 2 of \</tspan>
<tspan x="10" y="5850">4 passed] - testCase_buildApp_default", source: http://127.0.0.1:63769/assets.utility2.rollup.js\</tspan>
<tspan x="10" y="5866"> (25495)</tspan>

<tspan x="10" y="5882">[5780:0420/192753.687124:INFO:CONSOLE(25495)] "testRunDefault - 35 ms - [browser test-case 3 of \</tspan>
<tspan x="10" y="5898">4 passed] - testCase_exampleJs_exit", source: http://127.0.0.1:63769/assets.utility2.rollup.js (\</tspan>
<tspan x="10" y="5914">25495)</tspan>

<tspan x="10" y="5930">[5780:0420/192753.690398:INFO:CONSOLE(25495)] "testRunDefault - 38 ms - [browser test-case 4 of \</tspan>
<tspan x="10" y="5946">4 passed] - testCase_nop_default", source: http://127.0.0.1:63769/assets.utility2.rollup.js (254\</tspan>
<tspan x="10" y="5962">95)</tspan>

<tspan x="10" y="5978">created screenshot file /tmp/screenshot.testExampleJs.browser..png</tspan>

<tspan x="10" y="5994">testRunDefault - 21390 ms - [node test-case 7 of 8 passed] - testCase_exampleJs_exit</tspan>

<tspan x="10" y="6010">[5780:0420/192754.525698:INFO:CONSOLE(8318)] "----------|-----------|-----------|-----------|---\</tspan>
<tspan x="10" y="6026">--------|</tspan>

<tspan x="10" y="6042">File      |   % Stmts |% Branches |   % Funcs |   % Lines |</tspan>

<tspan x="10" y="6058">----------|-----------|-----------|-----------|-----------|</tspan>

<tspan x="10" y="6074">----------|-----------|-----------|-----------|-----------|</tspan>

<tspan x="10" y="6090">All files |       100 |       100 |       100 |       100 |</tspan>

<tspan x="10" y="6106">----------|-----------|-----------|-----------|-----------|</tspan>

<tspan x="10" y="6122">", source: http://127.0.0.1:63769/assets.utility2.rollup.js (8318)</tspan>

<tspan x="10" y="6138">[5780:0420/192754.533418:INFO:CONSOLE(5943)] "created coverage file /tmp/build/coverage.html/ind\</tspan>
<tspan x="10" y="6154">ex.html", source: http://127.0.0.1:63769/assets.utility2.rollup.js (5943)</tspan>

<tspan x="10" y="6170">[5780:0420/192754.702900:INFO:CONSOLE(8318)] "----------|-----------|-----------|-----------|---\</tspan>
<tspan x="10" y="6186">--------|</tspan>

<tspan x="10" y="6202">File      |   % Stmts |% Branches |   % Funcs |   % Lines |</tspan>

<tspan x="10" y="6218">----------|-----------|-----------|-----------|-----------|</tspan>

<tspan x="10" y="6234">----------|-----------|-----------|-----------|-----------|</tspan>

<tspan x="10" y="6250">All files |       100 |       100 |       100 |       100 |</tspan>

<tspan x="10" y="6266">----------|-----------|-----------|-----------|-----------|</tspan>

<tspan x="10" y="6282">", source: http://127.0.0.1:63769/assets.utility2.rollup.js (8318)</tspan>

<tspan x="10" y="6298">[5780:0420/192754.707411:INFO:CONSOLE(5943)] "created coverage file /tmp/build/coverage.html/ind\</tspan>
<tspan x="10" y="6314">ex.html", source: http://127.0.0.1:63769/assets.utility2.rollup.js (5943)</tspan>

<tspan x="10" y="6330">testRunDefault - 25815 ms - testCase pending - testCase_webpage_default ...</tspan>

<tspan x="10" y="6346">[5780:0420/192758.447453:INFO:CONSOLE(135)] "null", source: fs.js (135)</tspan>

<tspan x="10" y="6362">[5780:0420/192758.616967:INFO:CONSOLE(135)] "Error: ENOENT: no such file or directory, rename '/\</tspan>
<tspan x="10" y="6378">tmp/npmTestPublished/node_modules/electron-lite/tmp/electron.16a3c381c000.4e05065d6348c.html' -&gt;\</tspan>
<tspan x="10" y="6394"> '/tmp/npmTestPublished/node_modules/electron-lite/tmp/electron.html'", source: fs.js (135)</tspan>

<tspan x="10" y="6410"></tspan>

<tspan x="10" y="6426">browserTest - created screenshot file /home/travis/build/kaizhu256/node-electron-lite/tmp/build/\</tspan>
<tspan x="10" y="6442">screenshot.npmTestPublished.browser.%2F.png</tspan>

<tspan x="10" y="6458"></tspan>

<tspan x="10" y="6474">browserTest - created screenshot file /home/travis/build/kaizhu256/node-electron-lite/tmp/build/\</tspan>
<tspan x="10" y="6490">screenshot.npmTestPublished.browser.%2F.html</tspan>

<tspan x="10" y="6506"></tspan>

<tspan x="10" y="6522">browserTest - created screenshot file /home/travis/build/kaizhu256/node-electron-lite/tmp/build/\</tspan>
<tspan x="10" y="6538">screenshot.npmTestPublished.browser.%2F.png</tspan>

<tspan x="10" y="6554"></tspan>

<tspan x="10" y="6570">browserTest - created screenshot file /home/travis/build/kaizhu256/node-electron-lite/tmp/build/\</tspan>
<tspan x="10" y="6586">screenshot.npmTestPublished.browser.%2F.html</tspan>

<tspan x="10" y="6602">testRunDefault - 26144 ms - [node test-case 8 of 8 passed] - testCase_webpage_default</tspan>

<tspan x="10" y="6618">----------------------|-----------|-----------|-----------|-----------|</tspan>

<tspan x="10" y="6634">File                  |   % Stmts |% Branches |   % Funcs |   % Lines |</tspan>

<tspan x="10" y="6650">----------------------|-----------|-----------|-----------|-----------|</tspan>

<tspan x="10" y="6666">   electron-lite/     |       100 |       100 |       100 |       100 |</tspan>

<tspan x="10" y="6682">      example.js      |       100 |       100 |       100 |       100 |</tspan>

<tspan x="10" y="6698">      lib.electron.js |       100 |       100 |       100 |       100 |</tspan>

<tspan x="10" y="6714">      test.js         |       100 |       100 |       100 |       100 |</tspan>

<tspan x="10" y="6730">----------------------|-----------|-----------|-----------|-----------|</tspan>

<tspan x="10" y="6746">All files             |       100 |       100 |       100 |       100 |</tspan>

<tspan x="10" y="6762">----------------------|-----------|-----------|-----------|-----------|</tspan>

<tspan x="10" y="6778"></tspan>

<tspan x="10" y="6794">created coverage file /tmp/npmTestPublished/node_modules/electron-lite/tmp/build/coverage.html/i\</tspan>
<tspan x="10" y="6810">ndex.html</tspan>

<tspan x="10" y="6826"></tspan>

<tspan x="10" y="6842">-------------------------------------------------------</tspan>

<tspan x="10" y="6858">| test-report - npmTestPublished - browser - / - Mozilla/5.0 (X11; Linux x86_64) AppleWebKit/537\</tspan>
<tspan x="10" y="6874">.36 (KHTML, like Gecko) Chrome/61.0.3163.100 Electron/2.0.16 Safari/537.36 - 2019-04-20T19:27:52\</tspan>
<tspan x="10" y="6890">.957Z</tspan>

<tspan x="10" y="6906">|    1010 ms            0 failed        4 passed      |</tspan>

<tspan x="10" y="6922">-------------------------------------------------------</tspan>

<tspan x="10" y="6938">| test-report - npmTestPublished - node - linux v8.9.3 - 2019-04-20T19:27:32.074Z</tspan>

<tspan x="10" y="6954">|   26145 ms            0 failed        8 passed      |</tspan>

<tspan x="10" y="6970">-------------------------------------------------------</tspan>

<tspan x="10" y="6986"></tspan>

<tspan x="10" y="7002">created test-report file /tmp/npmTestPublished/node_modules/electron-lite/tmp/build/test-report.\</tspan>
<tspan x="10" y="7018">html</tspan>

<tspan x="10" y="7034"></tspan>

<tspan x="10" y="7050"></tspan>

<tspan x="10" y="7066">npmTestPublished - 0 failed tests</tspan>

<tspan x="10" y="7082"></tspan>

<tspan x="10" y="7098"></tspan>

<tspan x="10" y="7114">[MODE_BUILD=npmTestPublished] - 2019-04-20T19:28:23.593Z - EXIT_CODE - 0</tspan>

</text>
</svg>
