<svg height="6734" width="720" xmlns="http://www.w3.org/2000/svg">
<rect height="6734" fill="#555" width="720"></rect>
<text fill="#7f7" font-family="Courier New" font-size="12" xml:space="preserve">
<tspan x="10" y="26"></tspan>

<tspan x="10" y="42">[MODE_BUILD=npmTestPublished] - 2019-08-03T20:48:21.028Z - npm-testing /tmp/npmTestPublished/nod\</tspan>
<tspan x="10" y="58">e_modules/electron-lite</tspan>

<tspan x="10" y="74"></tspan>

<tspan x="10" y="90"></tspan>

<tspan x="10" y="106">covering $ /tmp/npmTestPublished/node_modules/electron-lite/external/electron /tmp/npmTestPublis\</tspan>
<tspan x="10" y="122">hed/node_modules/electron-lite/test.js</tspan>

<tspan x="10" y="138">&gt; http-server listening on port 50853</tspan>

<tspan x="10" y="154">db - dropping database ...</tspan>

<tspan x="10" y="170">jslint /tmp/npmTestPublished/node_modules/electron-lite/README.md.&lt;```javascript&gt;.js</tspan>

<tspan x="10" y="186">  1 Unexpected trailing space. // line 122, column 30</tspan>

<tspan x="10" y="202">    frame: false,</tspan>

<tspan x="10" y="218">{</tspan>

<tspan x="10" y="234">    "name": "JSLintError",</tspan>

<tspan x="10" y="250">    "column": 30,</tspan>

<tspan x="10" y="266">    "line": 122,</tspan>

<tspan x="10" y="282">    "code": "unexpected_trailing_space",</tspan>

<tspan x="10" y="298">    "message": "Unexpected trailing space.",</tspan>

<tspan x="10" y="314">    "source": "                frame: false, ",</tspan>

<tspan x="10" y="330">    "ignore": null,</tspan>

<tspan x="10" y="346">    "c": {},</tspan>

<tspan x="10" y="362">    "d": {},</tspan>

<tspan x="10" y="378">    "a": "frame: false,",</tspan>

<tspan x="10" y="394">    "option": {</tspan>

<tspan x="10" y="410">        "modeNext": 12,</tspan>

<tspan x="10" y="426">        "autofix": true,</tspan>

<tspan x="10" y="442">        "conditional": true,</tspan>

<tspan x="10" y="458">        "file": "/tmp/npmTestPublished/node_modules/electron-lite/README.md.&lt;```javascript&gt;.js",</tspan>

<tspan x="10" y="474">        "errorText": "",</tspan>

<tspan x="10" y="490">        "fileType": ".js",</tspan>

<tspan x="10" y="506">        "utility2": true,</tspan>

<tspan x="10" y="522">        "fileType0": ".md",</tspan>

<tspan x="10" y="538">        "lineOffset": 79,</tspan>

<tspan x="10" y="554">        "edition": "2019-01-31",</tspan>

<tspan x="10" y="570">        "id": "(JSLint)",</tspan>

<tspan x="10" y="586">        "json": false,</tspan>

<tspan x="10" y="602">        "module": false,</tspan>

<tspan x="10" y="618">        "ok": false,</tspan>

<tspan x="10" y="634">        "stop": false,</tspan>

<tspan x="10" y="650">        "bitwise": true,</tspan>

<tspan x="10" y="666">        "browser": true,</tspan>

<tspan x="10" y="682">        "node": true,</tspan>

<tspan x="10" y="698">        "this": true</tspan>

<tspan x="10" y="714">    },</tspan>

<tspan x="10" y="730">    "stack": null,</tspan>

<tspan x="10" y="746">    "evidence": "                frame: false, "</tspan>

<tspan x="10" y="762">}</tspan>

<tspan x="10" y="778">Error</tspan>

<tspan x="10" y="794">    at warn_at_extra (/tmp/npmTestPublished/node_modules/electron-lite/node_modules/utility2/lib\</tspan>
<tspan x="10" y="810">.jslint.js:7154:42)</tspan>

<tspan x="10" y="826">    at warn_at (/tmp/npmTestPublished/node_modules/electron-lite/node_modules/utility2/lib.jslin\</tspan>
<tspan x="10" y="842">t.js:2462:5)</tspan>

<tspan x="10" y="858">    at next_line (/tmp/npmTestPublished/node_modules/electron-lite/node_modules/utility2/lib.jsl\</tspan>
<tspan x="10" y="874">int.js:2602:17)</tspan>

<tspan x="10" y="890">    at lex (/tmp/npmTestPublished/node_modules/electron-lite/node_modules/utility2/lib.jslint.js\</tspan>
<tspan x="10" y="906">:3215:27)</tspan>

<tspan x="10" y="922">    at tokenize (/tmp/npmTestPublished/node_modules/electron-lite/node_modules/utility2/lib.jsli\</tspan>
<tspan x="10" y="938">nt.js:3475:13)</tspan>

<tspan x="10" y="954">    at /tmp/npmTestPublished/node_modules/electron-lite/node_modules/utility2/lib.jslint.js:6847\</tspan>
<tspan x="10" y="970">:9</tspan>

<tspan x="10" y="986">    at Object.jslint_extra (/tmp/npmTestPublished/node_modules/electron-lite/node_modules/utilit\</tspan>
<tspan x="10" y="1002">y2/lib.jslint.js:6949:21)</tspan>

<tspan x="10" y="1018">    at Object.local.jslintAndPrint (/tmp/npmTestPublished/node_modules/electron-lite/node_module\</tspan>
<tspan x="10" y="1034">s/utility2/lib.jslint.js:7299:41)</tspan>

<tspan x="10" y="1050">    at Object.local.jslintAndPrint (/tmp/npmTestPublished/node_modules/electron-lite/node_module\</tspan>
<tspan x="10" y="1066">s/utility2/lib.jslint.js:7410:18)</tspan>

<tspan x="10" y="1082">    at Object.local.jslintAndPrint (/tmp/npmTestPublished/node_modules/electron-lite/node_module\</tspan>
<tspan x="10" y="1098">s/utility2/lib.jslint.js:7410:18)</tspan>

<tspan x="10" y="1114">  2 Unexpected trailing space. // line 123, column 29</tspan>

<tspan x="10" y="1130">    height: 768,</tspan>

<tspan x="10" y="1146">  3 Unexpected trailing space. // line 124, column 29</tspan>

<tspan x="10" y="1162">    width: 1024,</tspan>

<tspan x="10" y="1178">  4 Unexpected trailing space. // line 125, column 22</tspan>

<tspan x="10" y="1194">    x: 0,</tspan>

<tspan x="10" y="1210">Xlib:  extension "RANDR" missing on display ":99.0".</tspan>

<tspan x="10" y="1226">--- /tmp/npmTestPublished/node_modules/electron-lite/README.md.autofix.old	2019-08-03 20:48:22.0\</tspan>
<tspan x="10" y="1242">61312020 +0000</tspan>

<tspan x="10" y="1258">+++ /tmp/npmTestPublished/node_modules/electron-lite/README.md	2019-08-03 20:48:22.061312020 +00\</tspan>
<tspan x="10" y="1274">00</tspan>

<tspan x="10" y="1290">@@ -118,7 +118,13 @@</tspan>

<tspan x="10" y="1306">             break;</tspan>

<tspan x="10" y="1322">         case 2:</tspan>

<tspan x="10" y="1338">             // init options</tspan>

<tspan x="10" y="1354">-            options = {frame: false, height: 768, width: 1024, x: 0, y: 0};</tspan>

<tspan x="10" y="1370">+            options = {</tspan>

<tspan x="10" y="1386">+                frame: false, </tspan>

<tspan x="10" y="1402">+                height: 768, </tspan>

<tspan x="10" y="1418">+                width: 1024, </tspan>

<tspan x="10" y="1434">+                x: 0, </tspan>

<tspan x="10" y="1450">+                y: 0</tspan>

<tspan x="10" y="1466">+            };</tspan>

<tspan x="10" y="1482">             // init browserWindow;</tspan>

<tspan x="10" y="1498">             try {</tspan>

<tspan x="10" y="1514">                 options.BrowserWindow = require("browser-window");</tspan>

<tspan x="10" y="1530">@@ -183,12 +189,6 @@</tspan>

<tspan x="10" y="1546"> </tspan>

<tspan x="10" y="1562"> </tspan>

<tspan x="10" y="1578"> </tspan>

<tspan x="10" y="1594">-</tspan>

<tspan x="10" y="1610">-</tspan>

<tspan x="10" y="1626">-</tspan>

<tspan x="10" y="1642">-</tspan>

<tspan x="10" y="1658">-</tspan>

<tspan x="10" y="1674">-</tspan>

<tspan x="10" y="1690"> # package.json</tspan>

<tspan x="10" y="1706"> ```json</tspan>

<tspan x="10" y="1722"> {</tspan>

<tspan x="10" y="1738">jslint-autofix - modified and saved file /tmp/npmTestPublished/node_modules/electron-lite/README\</tspan>
<tspan x="10" y="1754">.md</tspan>

<tspan x="10" y="1770">jslint - 70ms /tmp/npmTestPublished/node_modules/electron-lite/README.md</tspan>

<tspan x="10" y="1786">jslint - 0ms /tmp/npmTestPublished/node_modules/electron-lite/package.json</tspan>

<tspan x="10" y="1802">--- /tmp/npmTestPublished/node_modules/electron-lite/lib.electron.js.autofix.old	2019-08-03 20:4\</tspan>
<tspan x="10" y="1818">8:22.209388732 +0000</tspan>

<tspan x="10" y="1834">+++ /tmp/npmTestPublished/node_modules/electron-lite/lib.electron.js	2019-08-03 20:48:22.2093887\</tspan>
<tspan x="10" y="1850">32 +0000</tspan>

<tspan x="10" y="1866">@@ -56,30 +56,30 @@</tspan>

<tspan x="10" y="1882">     // init function</tspan>

<tspan x="10" y="1898">     local.assertThrow = function (passed, message) {</tspan>

<tspan x="10" y="1914">     /*</tspan>

<tspan x="10" y="1930">-     * this function will throw the error &lt;message&gt; if &lt;passed&gt; is falsy</tspan>

<tspan x="10" y="1946">+     * this function will throw error-&lt;message&gt; if &lt;passed&gt; is falsy</tspan>

<tspan x="10" y="1962">      */</tspan>

<tspan x="10" y="1978">-        var error;</tspan>

<tspan x="10" y="1994">+        var err;</tspan>

<tspan x="10" y="2010">         if (passed) {</tspan>

<tspan x="10" y="2026">             return;</tspan>

<tspan x="10" y="2042">         }</tspan>

<tspan x="10" y="2058">-        error = (</tspan>

<tspan x="10" y="2074">+        err = (</tspan>

<tspan x="10" y="2090">             // ternary-condition</tspan>

<tspan x="10" y="2106">             (</tspan>

<tspan x="10" y="2122">                 message</tspan>

<tspan x="10" y="2138">                 &amp;&amp; typeof message.message === "string"</tspan>

<tspan x="10" y="2154">                 &amp;&amp; typeof message.stack === "string"</tspan>

<tspan x="10" y="2170">             )</tspan>

<tspan x="10" y="2186">-            // if message is an error-object, then leave it as is</tspan>

<tspan x="10" y="2202">+            // if message is error-object, then leave as is</tspan>

<tspan x="10" y="2218">             ? message</tspan>

<tspan x="10" y="2234">             : new Error(</tspan>

<tspan x="10" y="2250">                 typeof message === "string"</tspan>

<tspan x="10" y="2266">-                // if message is a string, then leave it as is</tspan>

<tspan x="10" y="2282">+                // if message is a string, then leave as is</tspan>

<tspan x="10" y="2298">                 ? message</tspan>

<tspan x="10" y="2314">                 // else JSON.stringify message</tspan>

<tspan x="10" y="2330">                 : JSON.stringify(message, null, 4)</tspan>

<tspan x="10" y="2346">             )</tspan>

<tspan x="10" y="2362">         );</tspan>

<tspan x="10" y="2378">-        throw error;</tspan>

<tspan x="10" y="2394">+        throw err;</tspan>

<tspan x="10" y="2410">     };</tspan>

<tspan x="10" y="2426">     local.functionOrNop = function (fnc) {</tspan>

<tspan x="10" y="2442">     /*</tspan>

<tspan x="10" y="2458">@@ -107,7 +107,8 @@</tspan>

<tspan x="10" y="2474">      * null, undefined, or empty-string,</tspan>

<tspan x="10" y="2490">      * then overwrite them with items from &lt;source&gt;</tspan>

<tspan x="10" y="2506">      */</tspan>

<tspan x="10" y="2522">-        Object.keys(source).forEach(function (key) {</tspan>

<tspan x="10" y="2538">+        target = target || {};</tspan>

<tspan x="10" y="2554">+        Object.keys(source || {}).forEach(function (key) {</tspan>

<tspan x="10" y="2570">             if (</tspan>

<tspan x="10" y="2586">                 target[key] === null</tspan>

<tspan x="10" y="2602">                 || target[key] === undefined</tspan>

<tspan x="10" y="2618">@@ -116,6 +117,7 @@</tspan>

<tspan x="10" y="2634">                 target[key] = target[key] || source[key];</tspan>

<tspan x="10" y="2650">             }</tspan>

<tspan x="10" y="2666">         });</tspan>

<tspan x="10" y="2682">+        return target;</tspan>

<tspan x="10" y="2698">     };</tspan>

<tspan x="10" y="2714">     // require builtin</tspan>

<tspan x="10" y="2730">     if (!local.isBrowser) {</tspan>

<tspan x="10" y="2746">@@ -191,16 +193,13 @@</tspan>

<tspan x="10" y="2762"> if (local.isBrowser || module !== require.main || process.versions.electron) {</tspan>

<tspan x="10" y="2778">     return;</tspan>

<tspan x="10" y="2794"> }</tspan>

<tspan x="10" y="2810">-([</tspan>

<tspan x="10" y="2826">-    (</tspan>

<tspan x="10" y="2842">-        process.platform === "darwin"</tspan>

<tspan x="10" y="2858">-        &amp;&amp; __dirname + "/external/Atom.app/Contents/MacOS/Atom"</tspan>

<tspan x="10" y="2874">-    ), (</tspan>

<tspan x="10" y="2890">-        process.platform === "darwin"</tspan>

<tspan x="10" y="2906">-        &amp;&amp; __dirname + "/external/Electron.app/Contents/MacOS/Electron"</tspan>

<tspan x="10" y="2922">-    ),</tspan>

<tspan x="10" y="2938">-    __dirname + "/external/electron"</tspan>

<tspan x="10" y="2954">-]).some(function (file) {</tspan>

<tspan x="10" y="2970">+([(</tspan>

<tspan x="10" y="2986">+    process.platform === "darwin"</tspan>

<tspan x="10" y="3002">+    &amp;&amp; __dirname + "/external/Atom.app/Contents/MacOS/Atom"</tspan>

<tspan x="10" y="3018">+), (</tspan>

<tspan x="10" y="3034">+    process.platform === "darwin"</tspan>

<tspan x="10" y="3050">+    &amp;&amp; __dirname + "/external/Electron.app/Contents/MacOS/Electron"</tspan>

<tspan x="10" y="3066">+), __dirname + "/external/electron"]).some(function (file) {</tspan>

<tspan x="10" y="3082">     if (file &amp;&amp; local.fs.existsSync(file)) {</tspan>

<tspan x="10" y="3098">         local.__filename = file;</tspan>

<tspan x="10" y="3114">         return true;</tspan>

<tspan x="10" y="3130">@@ -210,7 +209,9 @@</tspan>

<tspan x="10" y="3146"> local.child = local.child_process.spawn(</tspan>

<tspan x="10" y="3162">     local.__filename,</tspan>

<tspan x="10" y="3178">     process.argv.slice(2),</tspan>

<tspan x="10" y="3194">-    {stdio: [0, "pipe", 2]}</tspan>

<tspan x="10" y="3210">+    {</tspan>

<tspan x="10" y="3226">+        stdio: [0, "pipe", 2]</tspan>

<tspan x="10" y="3242">+    }</tspan>

<tspan x="10" y="3258"> );</tspan>

<tspan x="10" y="3274"> local.child.on("exit", process.exit);</tspan>

<tspan x="10" y="3290"> local.child.stdout.on("data", function (chunk, encoding, cb) {</tspan>

<tspan x="10" y="3306">jslint-autofix - modified and saved file /tmp/npmTestPublished/node_modules/electron-lite/lib.el\</tspan>
<tspan x="10" y="3322">ectron.js</tspan>

<tspan x="10" y="3338">jslint - 167ms /tmp/npmTestPublished/node_modules/electron-lite/lib.electron.js</tspan>

<tspan x="10" y="3354">jslint - 9ms /tmp/npmTestPublished/node_modules/electron-lite/npm_scripts.sh</tspan>

<tspan x="10" y="3370">--- /tmp/npmTestPublished/node_modules/electron-lite/test.js.autofix.old	2019-08-03 20:48:22.381\</tspan>
<tspan x="10" y="3386">477883 +0000</tspan>

<tspan x="10" y="3402">+++ /tmp/npmTestPublished/node_modules/electron-lite/test.js	2019-08-03 20:48:22.377475810 +0000</tspan>

<tspan x="10" y="3418">@@ -46,30 +46,30 @@</tspan>

<tspan x="10" y="3434">     // init function</tspan>

<tspan x="10" y="3450">     local.assertThrow = function (passed, message) {</tspan>

<tspan x="10" y="3466">     /*</tspan>

<tspan x="10" y="3482">-     * this function will throw the error &lt;message&gt; if &lt;passed&gt; is falsy</tspan>

<tspan x="10" y="3498">+     * this function will throw error-&lt;message&gt; if &lt;passed&gt; is falsy</tspan>

<tspan x="10" y="3514">      */</tspan>

<tspan x="10" y="3530">-        var error;</tspan>

<tspan x="10" y="3546">+        var err;</tspan>

<tspan x="10" y="3562">         if (passed) {</tspan>

<tspan x="10" y="3578">             return;</tspan>

<tspan x="10" y="3594">         }</tspan>

<tspan x="10" y="3610">-        error = (</tspan>

<tspan x="10" y="3626">+        err = (</tspan>

<tspan x="10" y="3642">             // ternary-condition</tspan>

<tspan x="10" y="3658">             (</tspan>

<tspan x="10" y="3674">                 message</tspan>

<tspan x="10" y="3690">                 &amp;&amp; typeof message.message === "string"</tspan>

<tspan x="10" y="3706">                 &amp;&amp; typeof message.stack === "string"</tspan>

<tspan x="10" y="3722">             )</tspan>

<tspan x="10" y="3738">-            // if message is an error-object, then leave it as is</tspan>

<tspan x="10" y="3754">+            // if message is error-object, then leave as is</tspan>

<tspan x="10" y="3770">             ? message</tspan>

<tspan x="10" y="3786">             : new Error(</tspan>

<tspan x="10" y="3802">                 typeof message === "string"</tspan>

<tspan x="10" y="3818">-                // if message is a string, then leave it as is</tspan>

<tspan x="10" y="3834">+                // if message is a string, then leave as is</tspan>

<tspan x="10" y="3850">                 ? message</tspan>

<tspan x="10" y="3866">                 // else JSON.stringify message</tspan>

<tspan x="10" y="3882">                 : JSON.stringify(message, null, 4)</tspan>

<tspan x="10" y="3898">             )</tspan>

<tspan x="10" y="3914">         );</tspan>

<tspan x="10" y="3930">-        throw error;</tspan>

<tspan x="10" y="3946">+        throw err;</tspan>

<tspan x="10" y="3962">     };</tspan>

<tspan x="10" y="3978">     local.functionOrNop = function (fnc) {</tspan>

<tspan x="10" y="3994">     /*</tspan>

<tspan x="10" y="4010">@@ -97,7 +97,8 @@</tspan>

<tspan x="10" y="4026">      * null, undefined, or empty-string,</tspan>

<tspan x="10" y="4042">      * then overwrite them with items from &lt;source&gt;</tspan>

<tspan x="10" y="4058">      */</tspan>

<tspan x="10" y="4074">-        Object.keys(source).forEach(function (key) {</tspan>

<tspan x="10" y="4090">+        target = target || {};</tspan>

<tspan x="10" y="4106">+        Object.keys(source || {}).forEach(function (key) {</tspan>

<tspan x="10" y="4122">             if (</tspan>

<tspan x="10" y="4138">                 target[key] === null</tspan>

<tspan x="10" y="4154">                 || target[key] === undefined</tspan>

<tspan x="10" y="4170">@@ -106,6 +107,7 @@</tspan>

<tspan x="10" y="4186">                 target[key] = target[key] || source[key];</tspan>

<tspan x="10" y="4202">             }</tspan>

<tspan x="10" y="4218">         });</tspan>

<tspan x="10" y="4234">+        return target;</tspan>

<tspan x="10" y="4250">     };</tspan>

<tspan x="10" y="4266">     // require builtin</tspan>

<tspan x="10" y="4282">     if (!local.isBrowser) {</tspan>

<tspan x="10" y="4298">@@ -178,7 +180,9 @@</tspan>

<tspan x="10" y="4314">         local.electron.NativeImage = local.electron.nativeImage.createEmpty().constructor;</tspan>

<tspan x="10" y="4330">         local.electron.WebContents = local.electron.webContents.create().constructor;</tspan>

<tspan x="10" y="4346">     }</tspan>

<tspan x="10" y="4362">-    options = {moduleDict: {electron: local.electron}};</tspan>

<tspan x="10" y="4378">+    options = {</tspan>

<tspan x="10" y="4394">+        moduleDict: {electron: local.electron}</tspan>

<tspan x="10" y="4410">+    };</tspan>

<tspan x="10" y="4426">     local.buildApidoc(options, onError);</tspan>

<tspan x="10" y="4442"> };</tspan>

<tspan x="10" y="4458"> </tspan>

<tspan x="10" y="4474">jslint-autofix - modified and saved file /tmp/npmTestPublished/node_modules/electron-lite/test.j\</tspan>
<tspan x="10" y="4490">s</tspan>

<tspan x="10" y="4506">jslint - 148ms /tmp/npmTestPublished/node_modules/electron-lite/test.js</tspan>

<tspan x="10" y="4522">testRunDefault - 18341 ms - [node test-case 1 of 8 passed] - testCase_buildApidoc_default</tspan>

<tspan x="10" y="4538">testRunDefault - 18355 ms - [node test-case 2 of 8 passed] - testCase_buildApp_default</tspan>

<tspan x="10" y="4554">testRunDefault - 18356 ms - [node test-case 3 of 8 passed] - testCase_buildLib_default</tspan>

<tspan x="10" y="4570">testRunDefault - 18366 ms - [node test-case 4 of 8 passed] - testCase_buildReadme_default</tspan>

<tspan x="10" y="4586">testRunDefault - 18367 ms - [node test-case 5 of 8 passed] - testCase_buildTest_default</tspan>

<tspan x="10" y="4602">testRunDefault - 18369 ms - [node test-case 6 of 8 passed] - testCase_nop_default</tspan>

<tspan x="10" y="4618">Xlib:  extension "RANDR" missing on display ":99.0".</tspan>

<tspan x="10" y="4634">[6848:0803/204841.138969:ERROR:bus.cc(395)] Failed to connect to the bus: Could not parse server\</tspan>
<tspan x="10" y="4650"> address: Unknown address type (examples of valid types are "tcp" and on UNIX "unix")</tspan>

<tspan x="10" y="4666">[6848:0803/204841.146382:ERROR:bus.cc(395)] Failed to connect to the bus: Could not parse server\</tspan>
<tspan x="10" y="4682"> address: Unknown address type (examples of valid types are "tcp" and on UNIX "unix")</tspan>

<tspan x="10" y="4698">[6883:0803/204841.296002:ERROR:sandbox_linux.cc(344)] InitializeSandbox() called with multiple t\</tspan>
<tspan x="10" y="4714">hreads in process gpu-process.</tspan>

<tspan x="10" y="4730">[6848:0803/204841.601999:INFO:CONSOLE(188)] "%cElectron Security Warning (Insecure Content-Secur\</tspan>
<tspan x="10" y="4746">ity-Policy)", source: /tmp/npmTestPublished/node_modules/electron-lite/external/resources/electr\</tspan>
<tspan x="10" y="4762">on.asar/renderer/security-warnings.js (188)</tspan>

<tspan x="10" y="4778">[6848:0803/204841.655568:INFO:CONSOLE(188)] "%cElectron Security Warning (Insecure Content-Secur\</tspan>
<tspan x="10" y="4794">ity-Policy)", source: /tmp/npmTestPublished/node_modules/electron-lite/external/resources/electr\</tspan>
<tspan x="10" y="4810">on.asar/renderer/security-warnings.js (188)</tspan>

<tspan x="10" y="4826">created screenshot file /tmp/screenshot.testExampleJs.browser..png</tspan>

<tspan x="10" y="4842">testRunDefault - 20419 ms - [node test-case 7 of 8 passed] - testCase_exampleJs_exit</tspan>

<tspan x="10" y="4858">testRunDefault - 20447 ms - testCase pending - testCase_webpage_default ...</tspan>

<tspan x="10" y="4874">[6848:0803/204842.755702:INFO:CONSOLE(8)] "Uncaught ReferenceError: process is not defined", sou\</tspan>
<tspan x="10" y="4890">rce: http://127.0.0.1:50853/assets.example.js (8)</tspan>

<tspan x="10" y="4906">[6848:0803/204842.767072:INFO:CONSOLE(3188)] "db - dropping database ...", source: http://127.0.\</tspan>
<tspan x="10" y="4922">0.1:50853/assets.utility2.rollup.js (3188)</tspan>

<tspan x="10" y="4938">[6848:0803/204842.790759:WARNING:quota_manager.cc(1629)] No storage quota provided in QuotaSetti\</tspan>
<tspan x="10" y="4954">ngs.</tspan>

<tspan x="10" y="4970">[6848:0803/204842.797443:INFO:CONSOLE(128)] "%cElectron Security Warning (Insecure Resources)", \</tspan>
<tspan x="10" y="4986">source: /tmp/npmTestPublished/node_modules/electron-lite/external/resources/electron.asar/render\</tspan>
<tspan x="10" y="5002">er/security-warnings.js (128)</tspan>

<tspan x="10" y="5018">[6848:0803/204842.799977:INFO:CONSOLE(188)] "%cElectron Security Warning (Insecure Content-Secur\</tspan>
<tspan x="10" y="5034">ity-Policy)", source: /tmp/npmTestPublished/node_modules/electron-lite/external/resources/electr\</tspan>
<tspan x="10" y="5050">on.asar/renderer/security-warnings.js (188)</tspan>

<tspan x="10" y="5066">[6848:0803/204842.803229:INFO:CONSOLE(8)] "Uncaught ReferenceError: process is not defined", sou\</tspan>
<tspan x="10" y="5082">rce: http://127.0.0.1:50853/assets.example.js (8)</tspan>

<tspan x="10" y="5098">[6848:0803/204842.814681:INFO:CONSOLE(3188)] "db - dropping database ...", source: http://127.0.\</tspan>
<tspan x="10" y="5114">0.1:50853/assets.utility2.rollup.js (3188)</tspan>

<tspan x="10" y="5130">[6848:0803/204842.835790:INFO:CONSOLE(128)] "%cElectron Security Warning (Insecure Resources)", \</tspan>
<tspan x="10" y="5146">source: /tmp/npmTestPublished/node_modules/electron-lite/external/resources/electron.asar/render\</tspan>
<tspan x="10" y="5162">er/security-warnings.js (128)</tspan>

<tspan x="10" y="5178">[6848:0803/204842.837906:INFO:CONSOLE(188)] "%cElectron Security Warning (Insecure Content-Secur\</tspan>
<tspan x="10" y="5194">ity-Policy)", source: /tmp/npmTestPublished/node_modules/electron-lite/external/resources/electr\</tspan>
<tspan x="10" y="5210">on.asar/renderer/security-warnings.js (188)</tspan>

<tspan x="10" y="5226">[6848:0803/204842.844259:INFO:CONSOLE(25623)] "testRunDefault - 17 ms - [browser test-case 1 of \</tspan>
<tspan x="10" y="5242">4 passed] - testCase_buildApidoc_default", source: http://127.0.0.1:50853/assets.utility2.rollup\</tspan>
<tspan x="10" y="5258">.js (25623)</tspan>

<tspan x="10" y="5274">[6848:0803/204842.847275:INFO:CONSOLE(25623)] "testRunDefault - 23 ms - [browser test-case 2 of \</tspan>
<tspan x="10" y="5290">4 passed] - testCase_buildApp_default", source: http://127.0.0.1:50853/assets.utility2.rollup.js\</tspan>
<tspan x="10" y="5306"> (25623)</tspan>

<tspan x="10" y="5322">[6848:0803/204842.848817:INFO:CONSOLE(25623)] "testRunDefault - 25 ms - [browser test-case 3 of \</tspan>
<tspan x="10" y="5338">4 passed] - testCase_exampleJs_exit", source: http://127.0.0.1:50853/assets.utility2.rollup.js (\</tspan>
<tspan x="10" y="5354">25623)</tspan>

<tspan x="10" y="5370">[6848:0803/204842.850046:INFO:CONSOLE(25623)] "testRunDefault - 26 ms - [browser test-case 4 of \</tspan>
<tspan x="10" y="5386">4 passed] - testCase_nop_default", source: http://127.0.0.1:50853/assets.utility2.rollup.js (256\</tspan>
<tspan x="10" y="5402">23)</tspan>

<tspan x="10" y="5418">[6848:0803/204842.893777:INFO:CONSOLE(25623)] "testRunDefault - 5 ms - [browser test-case 1 of 4\</tspan>
<tspan x="10" y="5434"> passed] - testCase_buildApidoc_default", source: http://127.0.0.1:50853/assets.utility2.rollup.\</tspan>
<tspan x="10" y="5450">js (25623)</tspan>

<tspan x="10" y="5466">[6848:0803/204842.895196:INFO:CONSOLE(25623)] "testRunDefault - 8 ms - [browser test-case 2 of 4\</tspan>
<tspan x="10" y="5482"> passed] - testCase_buildApp_default", source: http://127.0.0.1:50853/assets.utility2.rollup.js \</tspan>
<tspan x="10" y="5498">(25623)</tspan>

<tspan x="10" y="5514">[6848:0803/204842.901001:INFO:CONSOLE(25623)] "testRunDefault - 12 ms - [browser test-case 3 of \</tspan>
<tspan x="10" y="5530">4 passed] - testCase_exampleJs_exit", source: http://127.0.0.1:50853/assets.utility2.rollup.js (\</tspan>
<tspan x="10" y="5546">25623)</tspan>

<tspan x="10" y="5562">[6848:0803/204842.901096:INFO:CONSOLE(25623)] "testRunDefault - 13 ms - [browser test-case 4 of \</tspan>
<tspan x="10" y="5578">4 passed] - testCase_nop_default", source: http://127.0.0.1:50853/assets.utility2.rollup.js (256\</tspan>
<tspan x="10" y="5594">23)</tspan>

<tspan x="10" y="5610">[6848:0803/204843.855204:INFO:CONSOLE(8288)] "----------|-----------|-----------|-----------|---\</tspan>
<tspan x="10" y="5626">--------|</tspan>

<tspan x="10" y="5642">File      |   % Stmts |% Branches |   % Funcs |   % Lines |</tspan>

<tspan x="10" y="5658">----------|-----------|-----------|-----------|-----------|</tspan>

<tspan x="10" y="5674">----------|-----------|-----------|-----------|-----------|</tspan>

<tspan x="10" y="5690">All files |       100 |       100 |       100 |       100 |</tspan>

<tspan x="10" y="5706">----------|-----------|-----------|-----------|-----------|</tspan>

<tspan x="10" y="5722">", source: http://127.0.0.1:50853/assets.utility2.rollup.js (8288)</tspan>

<tspan x="10" y="5738">[6848:0803/204843.863626:INFO:CONSOLE(5943)] "created coverage file /tmp/build/coverage.html/ind\</tspan>
<tspan x="10" y="5754">ex.html", source: http://127.0.0.1:50853/assets.utility2.rollup.js (5943)</tspan>

<tspan x="10" y="5770">[6848:0803/204843.904270:INFO:CONSOLE(8288)] "----------|-----------|-----------|-----------|---\</tspan>
<tspan x="10" y="5786">--------|</tspan>

<tspan x="10" y="5802">File      |   % Stmts |% Branches |   % Funcs |   % Lines |</tspan>

<tspan x="10" y="5818">----------|-----------|-----------|-----------|-----------|</tspan>

<tspan x="10" y="5834">----------|-----------|-----------|-----------|-----------|</tspan>

<tspan x="10" y="5850">All files |       100 |       100 |       100 |       100 |</tspan>

<tspan x="10" y="5866">----------|-----------|-----------|-----------|-----------|</tspan>

<tspan x="10" y="5882">", source: http://127.0.0.1:50853/assets.utility2.rollup.js (8288)</tspan>

<tspan x="10" y="5898">[6848:0803/204843.913421:INFO:CONSOLE(5943)] "created coverage file /tmp/build/coverage.html/ind\</tspan>
<tspan x="10" y="5914">ex.html", source: http://127.0.0.1:50853/assets.utility2.rollup.js (5943)</tspan>

<tspan x="10" y="5930">testRunDefault - 25469 ms - testCase pending - testCase_webpage_default ...</tspan>

<tspan x="10" y="5946">[6848:0803/204847.775280:INFO:CONSOLE(135)] "null", source: fs.js (135)</tspan>

<tspan x="10" y="5962">[6848:0803/204847.939395:INFO:CONSOLE(135)] "Error: ENOENT: no such file or directory, rename '/\</tspan>
<tspan x="10" y="5978">tmp/npmTestPublished/node_modules/electron-lite/tmp/electron.16c593dd6940.c64a753f6a039.html' -&gt;\</tspan>
<tspan x="10" y="5994"> '/tmp/npmTestPublished/node_modules/electron-lite/tmp/electron.html'", source: fs.js (135)</tspan>

<tspan x="10" y="6010"></tspan>

<tspan x="10" y="6026">browserTest - created screenshot file /home/travis/build/kaizhu256/node-electron-lite/tmp/build/\</tspan>
<tspan x="10" y="6042">screenshot.npmTestPublished.browser.%2F.png</tspan>

<tspan x="10" y="6058"></tspan>

<tspan x="10" y="6074">browserTest - created screenshot file /home/travis/build/kaizhu256/node-electron-lite/tmp/build/\</tspan>
<tspan x="10" y="6090">screenshot.npmTestPublished.browser.%2F.html</tspan>

<tspan x="10" y="6106"></tspan>

<tspan x="10" y="6122">browserTest - created screenshot file /home/travis/build/kaizhu256/node-electron-lite/tmp/build/\</tspan>
<tspan x="10" y="6138">screenshot.npmTestPublished.browser.%2F.png</tspan>

<tspan x="10" y="6154"></tspan>

<tspan x="10" y="6170">browserTest - created screenshot file /home/travis/build/kaizhu256/node-electron-lite/tmp/build/\</tspan>
<tspan x="10" y="6186">screenshot.npmTestPublished.browser.%2F.html</tspan>

<tspan x="10" y="6202">testRunDefault - 25777 ms - [node test-case 8 of 8 passed] - testCase_webpage_default</tspan>

<tspan x="10" y="6218">----------------------|-----------|-----------|-----------|-----------|</tspan>

<tspan x="10" y="6234">File                  |   % Stmts |% Branches |   % Funcs |   % Lines |</tspan>

<tspan x="10" y="6250">----------------------|-----------|-----------|-----------|-----------|</tspan>

<tspan x="10" y="6266">   electron-lite/     |       100 |       100 |       100 |       100 |</tspan>

<tspan x="10" y="6282">      example.js      |       100 |       100 |       100 |       100 |</tspan>

<tspan x="10" y="6298">      lib.electron.js |       100 |       100 |       100 |       100 |</tspan>

<tspan x="10" y="6314">      test.js         |       100 |       100 |       100 |       100 |</tspan>

<tspan x="10" y="6330">----------------------|-----------|-----------|-----------|-----------|</tspan>

<tspan x="10" y="6346">All files             |       100 |       100 |       100 |       100 |</tspan>

<tspan x="10" y="6362">----------------------|-----------|-----------|-----------|-----------|</tspan>

<tspan x="10" y="6378"></tspan>

<tspan x="10" y="6394">created coverage file /tmp/npmTestPublished/node_modules/electron-lite/tmp/build/coverage.html/i\</tspan>
<tspan x="10" y="6410">ndex.html</tspan>

<tspan x="10" y="6426"></tspan>

<tspan x="10" y="6442">-------------------------------------------------------</tspan>

<tspan x="10" y="6458">| test-report - npmTestPublished - browser - / - Mozilla/5.0 (X11; Linux x86_64) AppleWebKit/537\</tspan>
<tspan x="10" y="6474">.36 (KHTML, like Gecko) Chrome/61.0.3163.100 Electron/2.0.16 Safari/537.36 - 2019-08-03T20:48:42\</tspan>
<tspan x="10" y="6490">.046Z</tspan>

<tspan x="10" y="6506">|    1012 ms            0 failed        4 passed      |</tspan>

<tspan x="10" y="6522">-------------------------------------------------------</tspan>

<tspan x="10" y="6538">| test-report - npmTestPublished - node - linux v8.9.3 - 2019-08-03T20:48:21.753Z</tspan>

<tspan x="10" y="6554">|   25778 ms            0 failed        8 passed      |</tspan>

<tspan x="10" y="6570">-------------------------------------------------------</tspan>

<tspan x="10" y="6586"></tspan>

<tspan x="10" y="6602">created test-report file /tmp/npmTestPublished/node_modules/electron-lite/tmp/build/test-report.\</tspan>
<tspan x="10" y="6618">html</tspan>

<tspan x="10" y="6634"></tspan>

<tspan x="10" y="6650"></tspan>

<tspan x="10" y="6666">npmTestPublished - 0 failed tests</tspan>

<tspan x="10" y="6682"></tspan>

<tspan x="10" y="6698"></tspan>

<tspan x="10" y="6714">[MODE_BUILD=npmTestPublished] - 2019-08-03T20:49:12.802Z - EXIT_CODE - 0</tspan>

</text>
</svg>
