<svg height="590" width="720" xmlns="http://www.w3.org/2000/svg">
<rect height="590" fill="#555" width="720"></rect>
<text fill="#7f7" font-family="Courier New" font-size="12" xml:space="preserve">
<tspan x="10" y="26"></tspan>

<tspan x="10" y="42">[MODE_BUILD=buildApp] - 2019-01-07T07:38:28.262Z - npm-testing /home/travis/build/kaizhu256/node\</tspan>
<tspan x="10" y="58">-electron-lite</tspan>

<tspan x="10" y="74"></tspan>

<tspan x="10" y="90"></tspan>

<tspan x="10" y="106">buildApp - merged test-report from file /home/travis/build/kaizhu256/node-electron-lite/tmp/buil\</tspan>
<tspan x="10" y="122">d/test-report.json</tspan>

<tspan x="10" y="138">&gt; server listening on http-port 53969</tspan>

<tspan x="10" y="154">db - dropping database ...</tspan>

<tspan x="10" y="170">Xlib:  extension "RANDR" missing on display ":99.0".</tspan>

<tspan x="10" y="186">testRunDefault - 21 ms - [node test-case 1 of 1 passed] - testCase_buildApp_default</tspan>

<tspan x="10" y="202"></tspan>

<tspan x="10" y="218">buildApp - merged test-report from file /home/travis/build/kaizhu256/node-electron-lite/tmp/buil\</tspan>
<tspan x="10" y="234">d/test-report.json</tspan>

<tspan x="10" y="250"></tspan>

<tspan x="10" y="266">-------------------------------------------------------</tspan>

<tspan x="10" y="282">| test-report - buildApp - node - linux v8.9.3 - 2019-01-07T07:38:28.722Z</tspan>

<tspan x="10" y="298">|      22 ms            0 failed        1 passed      |</tspan>

<tspan x="10" y="314">-------------------------------------------------------</tspan>

<tspan x="10" y="330">| test-report - npmTest - browser - / - Mozilla/5.0 (X11; Linux x86_64) AppleWebKit/537.36 (KHTM\</tspan>
<tspan x="10" y="346">L, like Gecko) Chrome/61.0.3163.100 Electron/2.0.16 Safari/537.36 - 2019-01-07T07:37:32.736Z</tspan>

<tspan x="10" y="362">|    1009 ms            0 failed        4 passed      |</tspan>

<tspan x="10" y="378">-------------------------------------------------------</tspan>

<tspan x="10" y="394">| test-report - npmTest - node - linux v8.9.3 - 2019-01-07T07:37:14.685Z</tspan>

<tspan x="10" y="410">|   23790 ms            0 failed        8 passed      |</tspan>

<tspan x="10" y="426">-------------------------------------------------------</tspan>

<tspan x="10" y="442"></tspan>

<tspan x="10" y="458">created test-report file /home/travis/build/kaizhu256/node-electron-lite/tmp/build/test-report.h\</tspan>
<tspan x="10" y="474">tml</tspan>

<tspan x="10" y="490"></tspan>

<tspan x="10" y="506"></tspan>

<tspan x="10" y="522">buildApp - 0 failed tests</tspan>

<tspan x="10" y="538"></tspan>

<tspan x="10" y="554"></tspan>

<tspan x="10" y="570">[MODE_BUILD=buildApp] - 2019-01-07T07:38:30.187Z - EXIT_CODE - 0</tspan>

</text>
</svg>
