<svg height="3262" width="720" xmlns="http://www.w3.org/2000/svg">
<rect height="3262" fill="#555" width="720"></rect>
<text fill="#7f7" font-family="Courier New" font-size="12" xml:space="preserve">
<tspan x="10" y="26">2019-08-03 20:51:20 +0000</tspan>

<tspan x="10" y="42">- major update to v4.2.8</tspan>

<tspan x="10" y="58"></tspan>

<tspan x="10" y="74">2019-08-03 20:46:42 +0000</tspan>

<tspan x="10" y="90">update build</tspan>

<tspan x="10" y="106"></tspan>

<tspan x="10" y="122">2019-08-03 06:09:02 -0500</tspan>

<tspan x="10" y="138">slushy.npm.start</tspan>

<tspan x="10" y="154"></tspan>

<tspan x="10" y="170">2019-08-03 06:01:25 -0500</tspan>

<tspan x="10" y="186">shNpmReleasesMinorVersions</tspan>

<tspan x="10" y="202"></tspan>

<tspan x="10" y="218">2019-08-03 05:42:53 -0500</tspan>

<tspan x="10" y="234">npm run eval shNpmReleasesParse</tspan>

<tspan x="10" y="250"></tspan>

<tspan x="10" y="266">2019-08-03 05:35:00 -0500</tspan>

<tspan x="10" y="282">npm run eval shNpmReleasesParse</tspan>

<tspan x="10" y="298"></tspan>

<tspan x="10" y="314">2019-08-03 05:10:11 -0500</tspan>

<tspan x="10" y="330">npm run eval shNpmReleasesParse</tspan>

<tspan x="10" y="346"></tspan>

<tspan x="10" y="362">2019-04-20 14:26:04 -0500</tspan>

<tspan x="10" y="378">update</tspan>

<tspan x="10" y="394"></tspan>

<tspan x="10" y="410">2019-04-20 14:25:12 -0500</tspan>

<tspan x="10" y="426">update</tspan>

<tspan x="10" y="442"></tspan>

<tspan x="10" y="458">2019-01-07 01:34:31 -0600</tspan>

<tspan x="10" y="474">[npm publish] - npm publish 2019.1.7</tspan>

<tspan x="10" y="490">- minor update to v2.0.16</tspan>

<tspan x="10" y="506"></tspan>

<tspan x="10" y="522">2018-09-24 01:12:42 +0700</tspan>

<tspan x="10" y="538">[npm publish] - npm publish 2018.9.23</tspan>

<tspan x="10" y="554">- minor update to v2.0.10</tspan>

<tspan x="10" y="570">- update file releases.txt</tspan>

<tspan x="10" y="586"></tspan>

<tspan x="10" y="602">2018-09-08 21:21:56 +0700</tspan>

<tspan x="10" y="618">[npm publish] - npm publish 2018.9.8</tspan>

<tspan x="10" y="634">- upgrade to electron v2.0.8</tspan>

<tspan x="10" y="650">- rename file busybox -&gt; busybox-i486</tspan>

<tspan x="10" y="666">- add file releases.txt</tspan>

<tspan x="10" y="682">- add npm-script shell-functions shNpmReleasesFetch, shNpmReleasesMinorVersions, shNpmReleasesPa\</tspan>
<tspan x="10" y="698">rse</tspan>

<tspan x="10" y="714">- revamp bootstrap-mechanism before running tests</tspan>

<tspan x="10" y="730">- fix stdout bug</tspan>

<tspan x="10" y="746"></tspan>

<tspan x="10" y="762">2018-06-30 18:04:21 -0500</tspan>

<tspan x="10" y="778">[npm publish] - npm publish 2018.6.30</tspan>

<tspan x="10" y="794">- minor update to electron v1.7.15</tspan>

<tspan x="10" y="810">- fix example.js for electron v2.0.x</tspan>

<tspan x="10" y="826">- consolidate npm-scripts into file npm_scripts.sh</tspan>

<tspan x="10" y="842"></tspan>

<tspan x="10" y="858">2018-05-04 17:47:09 +0800</tspan>

<tspan x="10" y="874">[npm publish] - npm publish 2018.5.4</tspan>

<tspan x="10" y="890">- minor update to electron v1.7.14</tspan>

<tspan x="10" y="906"></tspan>

<tspan x="10" y="922">2018-03-29 16:40:17 +0900</tspan>

<tspan x="10" y="938">[npm publish] - npm publish v2018.3.28</tspan>

<tspan x="10" y="954">- minor update to electron v1.7.13</tspan>

<tspan x="10" y="970"></tspan>

<tspan x="10" y="986">2018-03-08 12:29:45 +0800</tspan>

<tspan x="10" y="1002">[npm publish] - npm publish v2018.3.7</tspan>

<tspan x="10" y="1018">- upgrade to electron v1.7.12</tspan>

<tspan x="10" y="1034"></tspan>

<tspan x="10" y="1050">2017-11-16 21:51:09 +0800</tspan>

<tspan x="10" y="1066">[npm publish] - npm publish 2017.11.15</tspan>

<tspan x="10" y="1082">- minor upgrade to electron v1.6.15</tspan>

<tspan x="10" y="1098"></tspan>

<tspan x="10" y="1114">2017-10-03 20:55:13 +0800</tspan>

<tspan x="10" y="1130">[npm publish] - npm publish 2017.10.2</tspan>

<tspan x="10" y="1146">- upgrade to electron v1.6.14</tspan>

<tspan x="10" y="1162">- add cli-help section in README.md</tspan>

<tspan x="10" y="1178"></tspan>

<tspan x="10" y="1194">2017-08-31 23:38:41 +0800</tspan>

<tspan x="10" y="1210">[npm publish] - npm publish 2017.8.30</tspan>

<tspan x="10" y="1226">- add version override flag during install npm_config_electron_version</tspan>

<tspan x="10" y="1242">- fix symlink bug in macOs</tspan>

<tspan x="10" y="1258"></tspan>

<tspan x="10" y="1274">2017-07-16 06:36:09 +0800</tspan>

<tspan x="10" y="1290">[npm publish] - npm publish 2017.7.16</tspan>

<tspan x="10" y="1306">- re-include screenshot in top-section of README.md</tspan>

<tspan x="10" y="1322"></tspan>

<tspan x="10" y="1338">2017-07-16 02:56:45 +0800</tspan>

<tspan x="10" y="1354">[npm publish] - npm publish 2017.7.15</tspan>

<tspan x="10" y="1370">- upgrade to electron v1.6.11</tspan>

<tspan x="10" y="1386"></tspan>

<tspan x="10" y="1402">2017-05-30 16:50:17 +0800</tspan>

<tspan x="10" y="1418">[npm publish] - npm publish 2017.5.29</tspan>

<tspan x="10" y="1434">- add README section 'all screenshots'</tspan>

<tspan x="10" y="1450">- add README section 'quickstart standalone app'</tspan>

<tspan x="10" y="1466">- auto-create README section 'table of contents'</tspan>

<tspan x="10" y="1482">- rename README section 'quickstart web example' -&gt; 'quickstart example.js'</tspan>

<tspan x="10" y="1498"></tspan>

<tspan x="10" y="1514">2017-04-18 00:49:42 +0800</tspan>

<tspan x="10" y="1530">- npm publish 2017.4.16</tspan>

<tspan x="10" y="1546">- upgrade to electron v1.4.16</tspan>

<tspan x="10" y="1562"></tspan>

<tspan x="10" y="1578">2017-03-08 17:01:29 +0800</tspan>

<tspan x="10" y="1594">- npm publish 2017.3.7</tspan>

<tspan x="10" y="1610">- upgrade to electron v1.4.15</tspan>

<tspan x="10" y="1626"></tspan>

<tspan x="10" y="1642">2017-01-05 18:29:17 +0800</tspan>

<tspan x="10" y="1658">- npm publish 2017.1.6</tspan>

<tspan x="10" y="1674">- fix npm-postinstall on bare-bone linux systems</tspan>

<tspan x="10" y="1690"></tspan>

<tspan x="10" y="1706">2017-01-05 17:49:15 +0800</tspan>

<tspan x="10" y="1722">- npm publish 2017.1.5</tspan>

<tspan x="10" y="1738">- add api-doc section to README.md</tspan>

<tspan x="10" y="1754"></tspan>

<tspan x="10" y="1770">2016-12-29 03:00:26 +0800</tspan>

<tspan x="10" y="1786">- npm publish 2016.12.28</tspan>

<tspan x="10" y="1802">- update download-url</tspan>

<tspan x="10" y="1818">- rename file cli.js -&gt; lib.electron.js</tspan>

<tspan x="10" y="1834">- rename file index.sh -&gt; lib.electron.sh</tspan>

<tspan x="10" y="1850">- rename file unzip -&gt; busybox</tspan>

<tspan x="10" y="1866"></tspan>

<tspan x="10" y="1882">2016-12-13 22:10:29 +0800</tspan>

<tspan x="10" y="1898">- npm publish 2016.12.1</tspan>

<tspan x="10" y="1914">- upgrade to electron v1.3.13</tspan>

<tspan x="10" y="1930"></tspan>

<tspan x="10" y="1946">2016-10-31 23:51:25 +0800</tspan>

<tspan x="10" y="1962">- npm publish 2016.9.1</tspan>

<tspan x="10" y="1978">- upgrade to electron v1.3.8</tspan>

<tspan x="10" y="1994"></tspan>

<tspan x="10" y="2010">2016-09-28 16:35:37 +0800</tspan>

<tspan x="10" y="2026">- npm publish 2016.8.1</tspan>

<tspan x="10" y="2042">- upgrade to electron v1.3.7</tspan>

<tspan x="10" y="2058"></tspan>

<tspan x="10" y="2074">2016-08-07 21:46:38 +0200</tspan>

<tspan x="10" y="2090">- npm publish 2016.7.2</tspan>

<tspan x="10" y="2106">- update README.md</tspan>

<tspan x="10" y="2122"></tspan>

<tspan x="10" y="2138">2016-07-31 14:31:59 +0200</tspan>

<tspan x="10" y="2154">- npm publish 2016.7.1</tspan>

<tspan x="10" y="2170">- upgrade to electron v1.2.8</tspan>

<tspan x="10" y="2186"></tspan>

<tspan x="10" y="2202">2016-06-09 04:43:05 +0300</tspan>

<tspan x="10" y="2218">- npm publish 2016.5.1</tspan>

<tspan x="10" y="2234">- upgrade to electron @ 1.1.3</tspan>

<tspan x="10" y="2250"></tspan>

<tspan x="10" y="2266">2016-05-23 18:51:01 +0300</tspan>

<tspan x="10" y="2282">- npm publish 2016.4.3</tspan>

<tspan x="10" y="2298">- fix missing README.md in published package</tspan>

<tspan x="10" y="2314"></tspan>

<tspan x="10" y="2330">2016-05-23 18:02:40 +0300</tspan>

<tspan x="10" y="2346">- npm publish 2016.4.2</tspan>

<tspan x="10" y="2362">- upgrade to electron @ 1.0.2</tspan>

<tspan x="10" y="2378"></tspan>

<tspan x="10" y="2394">2016-04-21 01:03:37 +0300</tspan>

<tspan x="10" y="2410">- npm publish 2016.3.3</tspan>

<tspan x="10" y="2426">- fix race-condition for parallel npm install</tspan>

<tspan x="10" y="2442"></tspan>

<tspan x="10" y="2458">2016-04-20 16:14:19 +0300</tspan>

<tspan x="10" y="2474">- npm publish 2016.3.2</tspan>

<tspan x="10" y="2490">- add file cli.js</tspan>

<tspan x="10" y="2506">- fix npm install</tspan>

<tspan x="10" y="2522"></tspan>

<tspan x="10" y="2538">2016-04-20 13:49:12 +0300</tspan>

<tspan x="10" y="2554">- npm publish 2016.3.1</tspan>

<tspan x="10" y="2570">- upgrade to electron @ v0.36.12</tspan>

<tspan x="10" y="2586"></tspan>

<tspan x="10" y="2602">2016-02-29 22:29:34 +0800</tspan>

<tspan x="10" y="2618">- npm publish 2015.12.4</tspan>

<tspan x="10" y="2634">- upgrade to electron @ v0.35.6</tspan>

<tspan x="10" y="2650"></tspan>

<tspan x="10" y="2666">2015-12-28 15:31:59 +0800</tspan>

<tspan x="10" y="2682">- npm publish 2015.12.3</tspan>

<tspan x="10" y="2698">- remove linux unzip dependency by including busybox.unzip @ https://busybox.net/downloads/binar\</tspan>
<tspan x="10" y="2714">ies/1.21.1/busybox-i486</tspan>

<tspan x="10" y="2730"></tspan>

<tspan x="10" y="2746">2015-12-06 12:37:28 +0800</tspan>

<tspan x="10" y="2762">- npm publish 2015.11.2</tspan>

<tspan x="10" y="2778">- upgrade to electron @ 0.35.4</tspan>

<tspan x="10" y="2794"></tspan>

<tspan x="10" y="2810">2015-11-28 23:13:16 +0800</tspan>

<tspan x="10" y="2826">- npm publish 2015.11.1</tspan>

<tspan x="10" y="2842">- update to electron @ 0.35.2</tspan>

<tspan x="10" y="2858">- add file test.js</tspan>

<tspan x="10" y="2874"></tspan>

<tspan x="10" y="2890">2015-11-22 12:22:38 +0800</tspan>

<tspan x="10" y="2906">- npm publish 2015.10.5</tspan>

<tspan x="10" y="2922">- change name from electron-prebuilt-lite to electron-lite</tspan>

<tspan x="10" y="2938">- update devDependency with utility2 @ 2015.11.6</tspan>

<tspan x="10" y="2954"></tspan>

<tspan x="10" y="2970">2015-11-20 17:06:31 +0800</tspan>

<tspan x="10" y="2986">- npm publish 2015.10.4</tspan>

<tspan x="10" y="3002">- update to electron @ 0.35.1</tspan>

<tspan x="10" y="3018">- update devDependencty to utility2@2015.11.4</tspan>

<tspan x="10" y="3034">- fix quickstart screen-capture example</tspan>

<tspan x="10" y="3050"></tspan>

<tspan x="10" y="3066">2015-11-20 04:22:14 +0800</tspan>

<tspan x="10" y="3082">- npm publish 2015.10.3</tspan>

<tspan x="10" y="3098">- fix linux build</tspan>

<tspan x="10" y="3114"></tspan>

<tspan x="10" y="3130">2015-11-20 04:19:26 +0800</tspan>

<tspan x="10" y="3146">fix linux build</tspan>

<tspan x="10" y="3162"></tspan>

<tspan x="10" y="3178">2015-11-20 01:56:19 +0800</tspan>

<tspan x="10" y="3194">- npm publish 2015.10.2</tspan>

<tspan x="10" y="3210"></tspan>

<tspan x="10" y="3226">2014-03-26 02:31:50 +0700</tspan>

<tspan x="10" y="3242">add blank README.md</tspan>

</text>
</svg>
